<svg width="34" height="28" viewBox="0 0 34 28" fill="none" xmlns="http://www.w3.org/2000/svg">
<path d="M12.8333 10.6667C12.8333 11.3297 12.5699 11.9656 12.1011 12.4345C11.6322 12.9033 10.9964 13.1667 10.3333 13.1667C9.67027 13.1667 9.03439 12.9033 8.56555 12.4345C8.0967 11.9656 7.83331 11.3297 7.83331 10.6667C7.83331 10.0036 8.0967 9.36776 8.56555 8.89892C9.03439 8.43008 9.67027 8.16669 10.3333 8.16669C10.9964 8.16669 11.6322 8.43008 12.1011 8.89892C12.5699 9.36776 12.8333 10.0036 12.8333 10.6667ZM6.16665 16.0834C6.16665 15.7518 6.29834 15.4339 6.53276 15.1995C6.76718 14.9651 7.08513 14.8334 7.41665 14.8334H13.25C13.5815 14.8334 13.8994 14.9651 14.1339 15.1995C14.3683 15.4339 14.5 15.7518 14.5 16.0834V16.5C14.5 16.5 14.5 19.8334 10.3333 19.8334C6.16665 19.8334 6.16665 16.5 6.16665 16.5V16.0834ZM17.8333 10.875C17.8333 10.3 18.3 9.83335 18.875 9.83335H26.7916C26.9284 9.83335 27.0639 9.8603 27.1903 9.91265C27.3167 9.96499 27.4315 10.0417 27.5282 10.1384C27.6249 10.2352 27.7017 10.35 27.754 10.4764C27.8064 10.6028 27.8333 10.7382 27.8333 10.875C27.8333 11.0118 27.8064 11.1473 27.754 11.2736C27.7017 11.4 27.6249 11.5149 27.5282 11.6116C27.4315 11.7083 27.3167 11.785 27.1903 11.8374C27.0639 11.8897 26.9284 11.9167 26.7916 11.9167H18.875C18.3 11.9167 17.8333 11.45 17.8333 10.875ZM18.875 15.6667C18.5987 15.6667 18.3338 15.7764 18.1384 15.9718C17.9431 16.1671 17.8333 16.4321 17.8333 16.7084C17.8333 16.9846 17.9431 17.2496 18.1384 17.4449C18.3338 17.6403 18.5987 17.75 18.875 17.75H26.7916C27.0679 17.75 27.3329 17.6403 27.5282 17.4449C27.7236 17.2496 27.8333 16.9846 27.8333 16.7084C27.8333 16.4321 27.7236 16.1671 27.5282 15.9718C27.3329 15.7764 27.0679 15.6667 26.7916 15.6667H18.875ZM0.333313 4.20835C0.333313 3.26905 0.706452 2.36821 1.37064 1.70402C2.03483 1.03983 2.93567 0.666687 3.87498 0.666687H30.125C31.0643 0.666687 31.9651 1.03983 32.6293 1.70402C33.2935 2.36821 33.6666 3.26905 33.6666 4.20835V23.7917C33.6666 24.731 33.2935 25.6318 32.6293 26.296C31.9651 26.9602 31.0643 27.3334 30.125 27.3334H3.87498C2.93567 27.3334 2.03483 26.9602 1.37064 26.296C0.706452 25.6318 0.333313 24.731 0.333313 23.7917V4.20835ZM3.87498 2.75002C3.48821 2.75002 3.11727 2.90367 2.84378 3.17716C2.57029 3.45065 2.41665 3.82158 2.41665 4.20835V23.7917C2.41665 24.5975 3.06998 25.25 3.87498 25.25H30.125C30.5118 25.25 30.8827 25.0964 31.1562 24.8229C31.4297 24.5494 31.5833 24.1785 31.5833 23.7917V4.20835C31.5833 3.82158 31.4297 3.45065 31.1562 3.17716C30.8827 2.90367 30.5118 2.75002 30.125 2.75002H3.87498Z" fill="#026792"/>
</svg>
