<svg width="30" height="31" viewBox="0 0 30 31" fill="none" xmlns="http://www.w3.org/2000/svg">
<path d="M15 8.74799C15.4421 8.74799 15.8661 8.57236 16.1788 8.25974C16.4914 7.94712 16.667 7.52311 16.667 7.08099C16.667 6.63888 16.4914 6.21487 16.1788 5.90225C15.8661 5.58962 15.4421 5.41399 15 5.41399C14.5579 5.41399 14.1339 5.58962 13.8213 5.90225C13.5086 6.21487 13.333 6.63888 13.333 7.08099C13.333 7.52311 13.5086 7.94712 13.8213 8.25974C14.1339 8.57236 14.5579 8.74799 15 8.74799ZM27 23.68V13H27.184C28.97 13 29.704 10.704 28.244 9.66999L16.544 1.36599C16.0929 1.04554 15.5533 0.873383 15 0.873383C14.4467 0.873383 13.9071 1.04554 13.456 1.36599L1.75201 9.66999C0.296008 10.704 1.02601 12.998 2.81201 12.998H3.00001V23.678C1.79801 24.45 1.00001 25.798 1.00001 27.332V29.998C1.00001 30.2632 1.10536 30.5176 1.2929 30.7051C1.48044 30.8926 1.73479 30.998 2.00001 30.998H28C28.2652 30.998 28.5196 30.8926 28.7071 30.7051C28.8947 30.5176 29 30.2632 29 29.998V27.332C29 25.798 28.204 24.45 27 23.68ZM14.612 2.99799C14.7246 2.91826 14.8591 2.87544 14.997 2.87544C15.1349 2.87544 15.2695 2.91826 15.382 2.99799L26.66 10.998H3.33601L14.614 2.99799H14.612ZM24.996 12.998V23.01C24.8855 23.0018 24.7748 22.9978 24.664 22.998H20.996V13H24.996V12.998ZM5.00001 23.01V13H9.00001V23H5.33201C5.22001 23 5.10801 23.004 4.99801 23.012L5.00001 23.01ZM5.33401 24.998H24.668C25.956 24.998 27 26.042 27 27.332V28.998H3.00001V27.332C3.00001 26.042 4.04601 24.998 5.33401 24.998ZM14 22.998H11V13H14V23V22.998ZM16 22.998V13H19V23H16V22.998Z" fill="#016792"/>
</svg>
