<svg width="139" height="27" viewBox="0 0 139 27" fill="none" xmlns="http://www.w3.org/2000/svg">
<path fill-rule="evenodd" clip-rule="evenodd" d="M0 10.3986C0 4.43747 5.29038 0 11.3028 0C17.3153 0 22.6057 4.43747 22.6057 10.3986V20.3451C22.6057 21.5936 21.5936 22.6057 20.3451 22.6057C19.0966 22.6057 18.0845 21.5936 18.0845 20.3451V10.3986C18.0845 7.37072 15.2782 4.52114 11.3028 4.52114C7.32748 4.52114 4.52114 7.37072 4.52114 10.3986V20.3451C4.52114 21.5936 3.50904 22.6057 2.26057 22.6057C1.01209 22.6057 0 21.5936 0 20.3451V10.3986Z" fill="#026792"/>
<path d="M14.6937 16.9543C14.6937 18.827 13.1756 20.3451 11.3028 20.3451C9.43012 20.3451 7.91199 18.827 7.91199 16.9543C7.91199 15.0816 9.43012 13.5634 11.3028 13.5634C13.1756 13.5634 14.6937 15.0816 14.6937 16.9543Z" fill="#026792"/>
<path d="M29.3874 20.1629V5.36642H35.225C36.3473 5.36642 37.3034 5.58076 38.0933 6.00943C38.8832 6.43329 39.4853 7.02332 39.8995 7.77951C40.3186 8.5309 40.5281 9.39788 40.5281 10.3805C40.5281 11.363 40.3161 12.23 39.8923 12.9814C39.4684 13.7328 38.8543 14.318 38.05 14.737C37.2504 15.1561 36.2823 15.3656 35.1456 15.3656H31.4248V12.8586H34.6398C35.2419 12.8586 35.738 12.755 36.1282 12.5479C36.5231 12.336 36.8169 12.0446 37.0096 11.6737C37.2071 11.298 37.3058 10.8669 37.3058 10.3805C37.3058 9.88916 37.2071 9.46049 37.0096 9.09443C36.8169 8.72356 36.5231 8.43697 36.1282 8.23468C35.7332 8.02757 35.2323 7.92401 34.6254 7.92401H32.5157V20.1629H29.3874Z" fill="#303030"/>
<path d="M47.3375 20.3796C46.2152 20.3796 45.2447 20.1412 44.4259 19.6644C43.6119 19.1827 42.9833 18.5132 42.5402 17.6559C42.0971 16.7937 41.8755 15.7943 41.8755 14.6575C41.8755 13.5112 42.0971 12.5094 42.5402 11.652C42.9833 10.7899 43.6119 10.1204 44.4259 9.64352C45.2447 9.16186 46.2152 8.92104 47.3375 8.92104C48.4597 8.92104 49.4279 9.16186 50.2418 9.64352C51.0607 10.1204 51.6916 10.7899 52.1348 11.652C52.5779 12.5094 52.7994 13.5112 52.7994 14.6575C52.7994 15.7943 52.5779 16.7937 52.1348 17.6559C51.6916 18.5132 51.0607 19.1827 50.2418 19.6644C49.4279 20.1412 48.4597 20.3796 47.3375 20.3796ZM47.3519 17.9954C47.8625 17.9954 48.2887 17.8509 48.6307 17.5619C48.9727 17.2681 49.2304 16.8683 49.4038 16.3626C49.582 15.8569 49.6711 15.2813 49.6711 14.6359C49.6711 13.9905 49.582 13.4149 49.4038 12.9091C49.2304 12.4034 48.9727 12.0036 48.6307 11.7098C48.2887 11.416 47.8625 11.2691 47.3519 11.2691C46.8365 11.2691 46.4031 11.416 46.0515 11.7098C45.7047 12.0036 45.4422 12.4034 45.2639 12.9091C45.0905 13.4149 45.0039 13.9905 45.0039 14.6359C45.0039 15.2813 45.0905 15.8569 45.2639 16.3626C45.4422 16.8683 45.7047 17.2681 46.0515 17.5619C46.4031 17.8509 46.8365 17.9954 47.3519 17.9954Z" fill="#303030"/>
<path d="M60.7034 9.06553V11.3775H54.0204V9.06553H60.7034ZM55.5376 6.4068H58.6154V16.7527C58.6154 17.0369 58.6588 17.2585 58.7455 17.4174C58.8322 17.5716 58.9526 17.6799 59.1067 17.7425C59.2657 17.8052 59.4487 17.8365 59.6558 17.8365C59.8003 17.8365 59.9448 17.8244 60.0893 17.8003C60.2338 17.7714 60.3446 17.7498 60.4216 17.7353L60.9057 20.0256C60.7516 20.0738 60.5348 20.1292 60.2555 20.1918C59.9761 20.2592 59.6365 20.3001 59.2368 20.3146C58.495 20.3435 57.8448 20.2447 57.2861 20.0184C56.7322 19.792 56.3011 19.4404 55.9928 18.9635C55.6846 18.4867 55.5328 17.8846 55.5376 17.1573V6.4068Z" fill="#303030"/>
<path d="M62.7083 20.1629V9.06553H65.6921V11.0018H65.8077C66.01 10.313 66.3496 9.79283 66.8264 9.44123C67.3033 9.0848 67.8524 8.90659 68.4737 8.90659C68.6278 8.90659 68.794 8.91622 68.9722 8.93549C69.1504 8.95475 69.307 8.98124 69.4418 9.01496V11.7459C69.2973 11.7026 69.0974 11.6641 68.8422 11.6303C68.5869 11.5966 68.3533 11.5798 68.1414 11.5798C67.6886 11.5798 67.284 11.6785 66.9276 11.876C66.576 12.0687 66.2966 12.3384 66.0895 12.6852C65.8872 13.032 65.7861 13.4317 65.7861 13.8845V20.1629H62.7083Z" fill="#303030"/>
<path d="M73.8797 20.3724C73.1716 20.3724 72.5407 20.2496 71.9868 20.0039C71.4329 19.7535 70.9946 19.385 70.6718 18.8985C70.354 18.4072 70.195 17.7955 70.195 17.0634C70.195 16.4469 70.3082 15.9291 70.5346 15.5101C70.761 15.091 71.0692 14.7539 71.4594 14.4986C71.8495 14.2433 72.2926 14.0507 72.7887 13.9206C73.2896 13.7906 73.8146 13.6991 74.3637 13.6461C75.0092 13.5786 75.5293 13.516 75.9243 13.4582C76.3193 13.3956 76.6058 13.3041 76.784 13.1837C76.9623 13.0633 77.0514 12.8851 77.0514 12.649V12.6057C77.0514 12.1481 76.9069 11.7941 76.6179 11.5436C76.3337 11.2932 75.9291 11.168 75.4041 11.168C74.8502 11.168 74.4095 11.2908 74.082 11.5364C73.7544 11.7773 73.5377 12.0807 73.4317 12.4468L70.5852 12.2156C70.7296 11.5412 71.0138 10.9584 71.4377 10.4672C71.8615 9.97105 72.4082 9.59054 73.0777 9.32563C73.752 9.0559 74.5323 8.92104 75.4186 8.92104C76.0351 8.92104 76.6251 8.99329 77.1886 9.13778C77.757 9.28228 78.2603 9.50625 78.6986 9.80969C79.1418 10.1131 79.491 10.5033 79.7462 10.9801C80.0015 11.4521 80.1291 12.0181 80.1291 12.6779V20.1629H77.2103V18.624H77.1236C76.9454 18.9708 76.707 19.2766 76.4084 19.5415C76.1097 19.8016 75.7509 20.0063 75.3319 20.1556C74.9128 20.3001 74.4288 20.3724 73.8797 20.3724ZM74.7611 18.2483C75.2139 18.2483 75.6136 18.1592 75.9604 17.981C76.3072 17.7979 76.5793 17.5523 76.7768 17.244C76.9743 16.9358 77.073 16.5866 77.073 16.1964V15.0188C76.9767 15.0814 76.8443 15.1392 76.6757 15.1922C76.5119 15.2404 76.3265 15.2861 76.1194 15.3295C75.9123 15.368 75.7051 15.4041 75.498 15.4378C75.2909 15.4667 75.1031 15.4932 74.9345 15.5173C74.5733 15.5703 74.2578 15.6546 73.988 15.7702C73.7183 15.8858 73.5088 16.0423 73.3595 16.2398C73.2102 16.4324 73.1355 16.6733 73.1355 16.9623C73.1355 17.3813 73.2872 17.7016 73.5907 17.9232C73.8989 18.1399 74.2891 18.2483 74.7611 18.2483Z" fill="#303030"/>
<path d="M82.517 20.1629V9.06553H85.5947V20.1629H82.517ZM84.0631 7.63502C83.6055 7.63502 83.2129 7.4833 82.8854 7.17985C82.5627 6.87159 82.4014 6.50313 82.4014 6.07446C82.4014 5.6506 82.5627 5.28695 82.8854 4.98351C83.2129 4.67525 83.6055 4.52112 84.0631 4.52112C84.5206 4.52112 84.9108 4.67525 85.2335 4.98351C85.561 5.28695 85.7248 5.6506 85.7248 6.07446C85.7248 6.50313 85.561 6.87159 85.2335 7.17985C84.9108 7.4833 84.5206 7.63502 84.0631 7.63502Z" fill="#303030"/>
<path d="M91.138 13.7472V20.1629H88.0602V9.06553H90.9935V11.0235H91.1235C91.3692 10.378 91.781 9.86749 92.359 9.4918C92.937 9.11129 93.6378 8.92104 94.4614 8.92104C95.232 8.92104 95.904 9.08962 96.4771 9.42678C97.0503 9.76393 97.4958 10.2456 97.8137 10.8717C98.1316 11.4931 98.2906 12.2348 98.2906 13.097V20.1629H95.2128V13.6461C95.2176 12.9669 95.0442 12.4371 94.6926 12.0566C94.341 11.6713 93.8569 11.4786 93.2404 11.4786C92.8262 11.4786 92.4601 11.5677 92.1422 11.7459C91.8291 11.9242 91.5835 12.1843 91.4053 12.5262C91.2319 12.8634 91.1428 13.2704 91.138 13.7472Z" fill="#303030"/>
<path d="M102.575 13.487V20.1628H100.87V5.36633H102.575V10.7994H102.719C102.979 10.2262 103.37 9.77107 103.89 9.43391C104.415 9.09194 105.113 8.92095 105.985 8.92095C106.741 8.92095 107.403 9.07267 107.972 9.37611C108.54 9.67474 108.981 10.1347 109.294 10.7561C109.612 11.3726 109.771 12.1577 109.771 13.1113V20.1628H108.066V13.2269C108.066 12.3455 107.837 11.664 107.379 11.1823C106.927 10.6958 106.298 10.4526 105.494 10.4526C104.935 10.4526 104.434 10.5706 103.991 10.8066C103.553 11.0426 103.206 11.387 102.951 11.8398C102.7 12.2925 102.575 12.8416 102.575 13.487Z" fill="#303030"/>
<path d="M119.884 15.6256V9.06544H121.589V20.1628H119.884V18.2843H119.768C119.508 18.8479 119.103 19.3271 118.554 19.7221C118.005 20.1122 117.312 20.3073 116.474 20.3073C115.78 20.3073 115.164 20.1556 114.624 19.8521C114.085 19.5438 113.661 19.0815 113.353 18.4649C113.044 17.8436 112.89 17.0609 112.89 16.1169V9.06544H114.595V16.0013C114.595 16.8105 114.822 17.4559 115.274 17.9375C115.732 18.4192 116.315 18.66 117.023 18.66C117.447 18.66 117.878 18.5516 118.316 18.3349C118.759 18.1182 119.13 17.7858 119.429 17.3379C119.732 16.8899 119.884 16.3192 119.884 15.6256Z" fill="#303030"/>
<path d="M124.943 20.1628V5.36633H126.648V10.8283H126.792C126.918 10.6356 127.091 10.39 127.313 10.0914C127.539 9.78793 127.862 9.5182 128.281 9.28219C128.705 9.04136 129.278 8.92095 130 8.92095C130.935 8.92095 131.758 9.15455 132.471 9.62176C133.184 10.089 133.74 10.7512 134.14 11.6086C134.54 12.4659 134.74 13.4774 134.74 14.643C134.74 15.8182 134.54 16.8369 134.14 17.6991C133.74 18.5565 133.186 19.2211 132.478 19.6932C131.77 20.1604 130.954 20.394 130.029 20.394C129.316 20.394 128.746 20.276 128.317 20.04C127.888 19.7991 127.558 19.527 127.327 19.2235C127.096 18.9153 126.918 18.66 126.792 18.4577H126.59V20.1628H124.943ZM126.619 14.6141C126.619 15.4522 126.742 16.1915 126.988 16.8321C127.233 17.4679 127.592 17.9664 128.064 18.3277C128.536 18.6841 129.114 18.8623 129.798 18.8623C130.511 18.8623 131.106 18.6745 131.583 18.2988C132.064 17.9183 132.425 17.4077 132.666 16.7671C132.912 16.1217 133.035 15.404 133.035 14.6141C133.035 13.8338 132.914 13.1306 132.673 12.5045C132.437 11.8735 132.079 11.375 131.597 11.0089C131.12 10.638 130.52 10.4526 129.798 10.4526C129.104 10.4526 128.522 10.6284 128.05 10.98C127.578 11.3268 127.221 11.8133 126.98 12.4394C126.74 13.0608 126.619 13.7857 126.619 14.6141Z" fill="#303030"/>
<path d="M102.038 27C101.751 27 101.502 26.9389 101.293 26.8168C101.084 26.6934 100.923 26.5219 100.81 26.3024C100.696 26.0815 100.639 25.8256 100.639 25.5344C100.639 25.2408 100.696 24.9842 100.81 24.7647C100.923 24.5438 101.084 24.3724 101.293 24.2502C101.502 24.1269 101.751 24.0652 102.038 24.0652C102.326 24.0652 102.574 24.1269 102.782 24.2502C102.992 24.3724 103.154 24.5438 103.267 24.7647C103.381 24.9842 103.437 25.2408 103.437 25.5344C103.437 25.8256 103.381 26.0815 103.267 26.3024C103.154 26.5219 102.992 26.6934 102.782 26.8168C102.574 26.9389 102.326 27 102.038 27ZM102.042 26.3893C102.173 26.3893 102.282 26.3523 102.37 26.2783C102.457 26.2031 102.523 26.1007 102.568 25.9711C102.613 25.8416 102.636 25.6942 102.636 25.5289C102.636 25.3636 102.613 25.2162 102.568 25.0866C102.523 24.9571 102.457 24.8547 102.37 24.7795C102.282 24.7042 102.173 24.6666 102.042 24.6666C101.91 24.6666 101.799 24.7042 101.709 24.7795C101.62 24.8547 101.553 24.9571 101.507 25.0866C101.463 25.2162 101.441 25.3636 101.441 25.5289C101.441 25.6942 101.463 25.8416 101.507 25.9711C101.553 26.1007 101.62 26.2031 101.709 26.2783C101.799 26.3523 101.91 26.3893 102.042 26.3893Z" fill="#8F8F8F"/>
<path d="M104.738 23.1548V26.9445H103.95V23.1548H104.738Z" fill="#8F8F8F"/>
<path d="M106.665 27C106.372 27 106.121 26.9408 105.91 26.8223C105.7 26.7027 105.539 26.5337 105.425 26.3153C105.312 26.0957 105.255 25.8361 105.255 25.5363C105.255 25.2439 105.312 24.9873 105.425 24.7665C105.539 24.5457 105.698 24.3736 105.904 24.2502C106.112 24.1269 106.355 24.0652 106.633 24.0652C106.821 24.0652 106.995 24.0954 107.157 24.1559C107.32 24.2151 107.462 24.3045 107.583 24.4242C107.705 24.5438 107.8 24.6943 107.868 24.8757C107.935 25.0558 107.969 25.2667 107.969 25.5085V25.725H105.569V25.2365H107.227C107.227 25.123 107.203 25.0225 107.153 24.9349C107.104 24.8473 107.036 24.7788 106.948 24.7295C106.862 24.6789 106.761 24.6536 106.646 24.6536C106.527 24.6536 106.421 24.6814 106.328 24.7369C106.237 24.7912 106.165 24.8646 106.113 24.9571C106.062 25.0484 106.035 25.1502 106.034 25.2624V25.7269C106.034 25.8675 106.06 25.989 106.112 26.0914C106.165 26.1938 106.239 26.2728 106.335 26.3283C106.432 26.3838 106.546 26.4115 106.678 26.4115C106.765 26.4115 106.846 26.3992 106.918 26.3745C106.991 26.3499 107.053 26.3128 107.105 26.2635C107.157 26.2142 107.197 26.1537 107.224 26.0822L107.953 26.1303C107.916 26.3054 107.84 26.4584 107.725 26.5892C107.612 26.7187 107.465 26.8199 107.285 26.8926C107.106 26.9642 106.899 27 106.665 27Z" fill="#8F8F8F"/>
<path d="M109.272 25.3013V26.9445H108.484V23.1548H109.25V24.6037H109.283C109.347 24.4359 109.451 24.3045 109.594 24.2095C109.737 24.1133 109.917 24.0652 110.133 24.0652C110.33 24.0652 110.502 24.1084 110.649 24.1947C110.797 24.2798 110.912 24.4026 110.993 24.563C111.076 24.7221 111.116 24.9127 111.115 25.1347V26.9445H110.327V25.2754C110.328 25.1002 110.284 24.9639 110.194 24.8664C110.105 24.769 109.98 24.7202 109.82 24.7202C109.713 24.7202 109.618 24.7431 109.535 24.7887C109.453 24.8344 109.389 24.901 109.342 24.9886C109.297 25.0749 109.273 25.1792 109.272 25.3013Z" fill="#8F8F8F"/>
<path d="M112.956 26.9445V23.1548H113.758V24.8257H113.808L115.171 23.1548H116.132L114.725 24.8516L116.148 26.9445H115.19L114.152 25.3864L113.758 25.8675V26.9445H112.956Z" fill="#8F8F8F"/>
<path d="M117.621 27C117.328 27 117.077 26.9408 116.866 26.8223C116.656 26.7027 116.494 26.5337 116.381 26.3153C116.267 26.0957 116.211 25.8361 116.211 25.5363C116.211 25.2439 116.267 24.9873 116.381 24.7665C116.494 24.5457 116.654 24.3736 116.86 24.2502C117.067 24.1269 117.311 24.0652 117.589 24.0652C117.777 24.0652 117.951 24.0954 118.113 24.1559C118.276 24.2151 118.418 24.3045 118.539 24.4242C118.661 24.5438 118.756 24.6943 118.824 24.8757C118.891 25.0558 118.925 25.2667 118.925 25.5085V25.725H116.525V25.2365H118.183C118.183 25.123 118.159 25.0225 118.109 24.9349C118.06 24.8473 117.991 24.7788 117.904 24.7295C117.818 24.6789 117.717 24.6536 117.602 24.6536C117.483 24.6536 117.377 24.6814 117.284 24.7369C117.193 24.7912 117.121 24.8646 117.069 24.9571C117.018 25.0484 116.991 25.1502 116.99 25.2624V25.7269C116.99 25.8675 117.016 25.989 117.067 26.0914C117.121 26.1938 117.195 26.2728 117.291 26.3283C117.388 26.3838 117.502 26.4115 117.634 26.4115C117.721 26.4115 117.801 26.3992 117.874 26.3745C117.947 26.3499 118.009 26.3128 118.061 26.2635C118.113 26.2142 118.152 26.1537 118.18 26.0822L118.909 26.1303C118.872 26.3054 118.796 26.4584 118.681 26.5892C118.568 26.7187 118.421 26.8199 118.241 26.8926C118.062 26.9642 117.855 27 117.621 27Z" fill="#8F8F8F"/>
<path d="M119.44 26.9445V24.1022H120.191V24.6037H120.224C120.284 24.4371 120.382 24.3058 120.52 24.2095C120.659 24.1133 120.824 24.0652 121.016 24.0652C121.211 24.0652 121.377 24.1139 121.514 24.2114C121.651 24.3076 121.742 24.4384 121.788 24.6037H121.818C121.876 24.4408 121.98 24.3107 122.132 24.2132C122.285 24.1145 122.466 24.0652 122.674 24.0652C122.94 24.0652 123.155 24.1497 123.32 24.3187C123.487 24.4865 123.57 24.7246 123.57 25.033V26.9445H122.783V25.1884C122.783 25.0305 122.742 24.9121 122.658 24.8331C122.574 24.7542 122.469 24.7147 122.343 24.7147C122.2 24.7147 122.088 24.7603 122.008 24.8516C121.928 24.9417 121.888 25.0607 121.888 25.2088V26.9445H121.124V25.1717C121.124 25.0324 121.084 24.9213 121.003 24.8387C120.924 24.756 120.82 24.7147 120.691 24.7147C120.603 24.7147 120.524 24.7369 120.454 24.7813C120.385 24.8245 120.33 24.8856 120.289 24.9645C120.248 25.0422 120.228 25.1335 120.228 25.2384V26.9445H119.44Z" fill="#8F8F8F"/>
<path d="M124.981 25.3013V26.9445H124.193V24.1022H124.944V24.6037H124.977C125.04 24.4384 125.146 24.3076 125.294 24.2114C125.442 24.1139 125.621 24.0652 125.832 24.0652C126.029 24.0652 126.202 24.1084 126.348 24.1947C126.495 24.2811 126.609 24.4044 126.691 24.5648C126.772 24.7239 126.813 24.9139 126.813 25.1347V26.9445H126.024V25.2754C126.026 25.1014 125.981 24.9657 125.891 24.8683C125.801 24.7696 125.677 24.7202 125.519 24.7202C125.413 24.7202 125.319 24.7431 125.238 24.7887C125.158 24.8344 125.095 24.901 125.049 24.9886C125.005 25.0749 124.982 25.1792 124.981 25.3013Z" fill="#8F8F8F"/>
<path d="M128.245 26.9981C128.063 26.9981 127.902 26.9667 127.76 26.9037C127.618 26.8396 127.506 26.7452 127.423 26.6206C127.342 26.4948 127.301 26.3381 127.301 26.1506C127.301 25.9927 127.33 25.8601 127.388 25.7528C127.446 25.6455 127.525 25.5591 127.625 25.4937C127.725 25.4283 127.838 25.379 127.965 25.3457C128.093 25.3124 128.228 25.2889 128.369 25.2754C128.534 25.2581 128.667 25.2421 128.768 25.2273C128.869 25.2112 128.943 25.1878 128.988 25.1569C129.034 25.1261 129.057 25.0805 129.057 25.02V25.0089C129.057 24.8917 129.02 24.801 128.946 24.7369C128.873 24.6728 128.769 24.6407 128.635 24.6407C128.493 24.6407 128.38 24.6721 128.296 24.735C128.212 24.7967 128.157 24.8744 128.13 24.9682L127.401 24.909C127.438 24.7363 127.511 24.587 127.619 24.4612C127.728 24.3341 127.868 24.2367 128.039 24.1688C128.212 24.0997 128.412 24.0652 128.639 24.0652C128.797 24.0652 128.948 24.0837 129.092 24.1207C129.238 24.1577 129.367 24.2151 129.479 24.2928C129.592 24.3705 129.682 24.4704 129.747 24.5926C129.812 24.7135 129.845 24.8584 129.845 25.0274V26.9445H129.098V26.5503H129.075C129.03 26.6391 128.969 26.7175 128.892 26.7853C128.816 26.8519 128.724 26.9044 128.616 26.9426C128.509 26.9796 128.385 26.9981 128.245 26.9981ZM128.47 26.4541C128.586 26.4541 128.689 26.4313 128.777 26.3856C128.866 26.3388 128.936 26.2758 128.987 26.1969C129.037 26.1179 129.062 26.0285 129.062 25.9286V25.627C129.038 25.643 129.004 25.6578 128.961 25.6714C128.919 25.6837 128.871 25.6954 128.818 25.7065C128.765 25.7164 128.712 25.7256 128.659 25.7343C128.606 25.7417 128.558 25.7485 128.515 25.7546C128.422 25.7682 128.341 25.7898 128.272 25.8194C128.203 25.849 128.15 25.8891 128.111 25.9397C128.073 25.989 128.054 26.0507 128.054 26.1247C128.054 26.232 128.093 26.3141 128.171 26.3708C128.249 26.4263 128.349 26.4541 128.47 26.4541Z" fill="#8F8F8F"/>
<path d="M131.171 26.1266L131.173 25.181H131.288L132.198 24.1022H133.103L131.88 25.5307H131.693L131.171 26.1266ZM130.457 26.9445V23.1548H131.245V26.9445H130.457ZM132.233 26.9445L131.397 25.7065L131.922 25.1495L133.156 26.9445H132.233Z" fill="#8F8F8F"/>
<path d="M134.668 27C134.375 27 134.124 26.9408 133.913 26.8223C133.703 26.7027 133.542 26.5337 133.428 26.3153C133.315 26.0957 133.258 25.8361 133.258 25.5363C133.258 25.2439 133.315 24.9873 133.428 24.7665C133.542 24.5457 133.701 24.3736 133.907 24.2502C134.115 24.1269 134.358 24.0652 134.636 24.0652C134.824 24.0652 134.998 24.0954 135.16 24.1559C135.323 24.2151 135.465 24.3045 135.586 24.4242C135.708 24.5438 135.803 24.6943 135.871 24.8757C135.938 25.0558 135.972 25.2667 135.972 25.5085V25.725H133.572V25.2365H135.23C135.23 25.123 135.206 25.0225 135.156 24.9349C135.107 24.8473 135.039 24.7788 134.951 24.7295C134.865 24.6789 134.764 24.6536 134.649 24.6536C134.53 24.6536 134.424 24.6814 134.331 24.7369C134.24 24.7912 134.168 24.8646 134.116 24.9571C134.065 25.0484 134.038 25.1502 134.037 25.2624V25.7269C134.037 25.8675 134.063 25.989 134.115 26.0914C134.168 26.1938 134.242 26.2728 134.338 26.3283C134.435 26.3838 134.549 26.4115 134.681 26.4115C134.768 26.4115 134.849 26.3992 134.921 26.3745C134.994 26.3499 135.056 26.3128 135.108 26.2635C135.16 26.2142 135.2 26.1537 135.227 26.0822L135.956 26.1303C135.919 26.3054 135.843 26.4584 135.728 26.5892C135.615 26.7187 135.468 26.8199 135.288 26.8926C135.109 26.9642 134.902 27 134.668 27Z" fill="#8F8F8F"/>
<path d="M136.487 26.9445V24.1022H137.251V24.5981H137.281C137.332 24.4217 137.419 24.2885 137.542 24.1984C137.664 24.1071 137.804 24.0615 137.963 24.0615C138.003 24.0615 138.045 24.064 138.091 24.0689C138.137 24.0738 138.177 24.0806 138.211 24.0893V24.7887C138.174 24.7776 138.123 24.7677 138.058 24.7591C137.992 24.7505 137.933 24.7462 137.878 24.7462C137.762 24.7462 137.659 24.7714 137.567 24.822C137.477 24.8714 137.406 24.9404 137.353 25.0293C137.301 25.1181 137.275 25.2205 137.275 25.3364V26.9445H136.487Z" fill="#8F8F8F"/>
</svg>
