<svg width="144" height="26" viewBox="0 0 144 26" fill="none" xmlns="http://www.w3.org/2000/svg">
<path fill-rule="evenodd" clip-rule="evenodd" d="M0 10.9463C0 4.73551 5.51196 0.112183 11.7762 0.112183C18.0405 0.112183 23.5525 4.73551 23.5525 10.9463V21.3094C23.5525 22.6102 22.498 23.6646 21.1972 23.6646C19.8964 23.6646 18.842 22.6102 18.842 21.3094V10.9463C18.842 7.7916 15.9181 4.82267 11.7762 4.82267C7.63437 4.82267 4.71049 7.7916 4.71049 10.9463V21.3094C4.71049 22.6102 3.65601 23.6646 2.35525 23.6646C1.05448 23.6646 0 22.6102 0 21.3094V10.9463Z" fill="white"/>
<path d="M15.3091 17.7766C15.3091 19.7277 13.7274 21.3094 11.7762 21.3094C9.82507 21.3094 8.24335 19.7277 8.24335 17.7766C8.24335 15.8254 9.82507 14.2437 11.7762 14.2437C13.7274 14.2437 15.3091 15.8254 15.3091 17.7766Z" fill="white"/>
<path d="M30.6182 18.7643V3.34812H36.7003C37.8696 3.34812 38.8657 3.57143 39.6887 4.01806C40.5117 4.45966 41.139 5.0744 41.5706 5.86227C42.0072 6.64513 42.2254 7.54842 42.2254 8.57215C42.2254 9.59587 42.0046 10.4992 41.563 11.282C41.1214 12.0649 40.4816 12.6746 39.6435 13.1112C38.8105 13.5478 37.8018 13.7661 36.6175 13.7661H32.7409V11.1541H36.0906C36.7179 11.1541 37.2348 11.0462 37.6412 10.8304C38.0527 10.6096 38.3589 10.306 38.5596 9.91955C38.7653 9.52813 38.8682 9.07899 38.8682 8.57215C38.8682 8.06028 38.7653 7.61365 38.5596 7.23226C38.3589 6.84586 38.0527 6.54727 37.6412 6.3365C37.2297 6.12072 36.7078 6.01282 36.0755 6.01282H33.8775V18.7643H30.6182Z" fill="white"/>
<path d="M49.32 18.9901C48.1508 18.9901 47.1396 18.7417 46.2865 18.2449C45.4384 17.7431 44.7835 17.0455 44.3218 16.1523C43.8602 15.254 43.6293 14.2127 43.6293 13.0284C43.6293 11.834 43.8602 10.7902 44.3218 9.89697C44.7835 8.9987 45.4384 8.30116 46.2865 7.80435C47.1396 7.30252 48.1508 7.05161 49.32 7.05161C50.4893 7.05161 51.498 7.30252 52.3461 7.80435C53.1992 8.30116 53.8566 8.9987 54.3182 9.89697C54.7799 10.7902 55.0108 11.834 55.0108 13.0284C55.0108 14.2127 54.7799 15.254 54.3182 16.1523C53.8566 17.0455 53.1992 17.7431 52.3461 18.2449C51.498 18.7417 50.4893 18.9901 49.32 18.9901ZM49.3351 16.506C49.867 16.506 50.3111 16.3555 50.6674 16.0544C51.0237 15.7483 51.2922 15.3318 51.4729 14.8048C51.6586 14.2779 51.7514 13.6782 51.7514 13.0058C51.7514 12.3333 51.6586 11.7337 51.4729 11.2067C51.2922 10.6798 51.0237 10.2633 50.6674 9.95719C50.3111 9.65108 49.867 9.49802 49.3351 9.49802C48.7981 9.49802 48.3465 9.65108 47.9802 9.95719C47.6188 10.2633 47.3453 10.6798 47.1597 11.2067C46.979 11.7337 46.8887 12.3333 46.8887 13.0058C46.8887 13.6782 46.979 14.2779 47.1597 14.8048C47.3453 15.3318 47.6188 15.7483 47.9802 16.0544C48.3465 16.3555 48.7981 16.506 49.3351 16.506Z" fill="white"/>
<path d="M63.2458 7.20215V9.61093H56.2829V7.20215H63.2458ZM57.8637 4.43206H61.0703V15.2113C61.0703 15.5074 61.1155 15.7382 61.2058 15.9039C61.2962 16.0644 61.4216 16.1773 61.5822 16.2426C61.7478 16.3078 61.9385 16.3404 62.1543 16.3404C62.3048 16.3404 62.4554 16.3279 62.6059 16.3028C62.7565 16.2727 62.8719 16.2501 62.9522 16.2351L63.4565 18.6213C63.2959 18.6714 63.0701 18.7291 62.7791 18.7944C62.488 18.8646 62.1342 18.9073 61.7177 18.9223C60.9449 18.9525 60.2674 18.8496 59.6853 18.6137C59.1082 18.3779 58.6591 18.0115 58.3379 17.5147C58.0167 17.0179 57.8586 16.3906 57.8637 15.6329V4.43206Z" fill="white"/>
<path d="M65.3346 18.7643V7.20215H68.4435V9.2195H68.5639C68.7747 8.50189 69.1284 7.95992 69.6253 7.59358C70.1221 7.22223 70.6941 7.03655 71.3415 7.03655C71.5021 7.03655 71.6752 7.04659 71.8609 7.06666C72.0466 7.08673 72.2097 7.11434 72.3502 7.14946V9.99483C72.1996 9.94966 71.9914 9.90952 71.7254 9.87439C71.4594 9.83926 71.216 9.8217 70.9952 9.8217C70.5235 9.8217 70.102 9.92457 69.7306 10.1303C69.3643 10.3311 69.0732 10.6121 68.8575 10.9734C68.6467 11.3347 68.5413 11.7512 68.5413 12.2229V18.7643H65.3346Z" fill="white"/>
<path d="M76.9739 18.9826C76.2362 18.9826 75.5788 18.8546 75.0017 18.5987C74.4246 18.3377 73.9679 17.9538 73.6317 17.447C73.3005 16.9351 73.1349 16.2978 73.1349 15.535C73.1349 14.8927 73.2528 14.3532 73.4887 13.9166C73.7246 13.48 74.0457 13.1287 74.4522 12.8628C74.8587 12.5968 75.3204 12.3961 75.8373 12.2606C76.3592 12.1251 76.9062 12.0297 77.4782 11.9745C78.1507 11.9043 78.6927 11.839 79.1042 11.7788C79.5157 11.7136 79.8142 11.6182 79.9999 11.4928C80.1856 11.3673 80.2784 11.1817 80.2784 10.9358V10.8906C80.2784 10.4139 80.1279 10.045 79.8268 9.78406C79.5307 9.52311 79.1092 9.39263 78.5622 9.39263C77.9851 9.39263 77.5259 9.5206 77.1847 9.77653C76.8434 10.0274 76.6176 10.3436 76.5072 10.725L73.5414 10.4841C73.6919 9.78155 73.988 9.17434 74.4296 8.66247C74.8712 8.14559 75.4408 7.74915 76.1384 7.47314C76.8409 7.19212 77.6539 7.05161 78.5772 7.05161C79.2196 7.05161 79.8343 7.12688 80.4215 7.27743C81.0136 7.42798 81.538 7.66133 81.9947 7.97748C82.4564 8.29363 82.8202 8.70011 83.0862 9.19692C83.3521 9.68871 83.4851 10.2784 83.4851 10.9659V18.7643H80.444V17.1609H80.3537C80.168 17.5222 79.9196 17.8409 79.6085 18.1169C79.2974 18.3879 78.9235 18.6012 78.4869 18.7567C78.0503 18.9073 77.546 18.9826 76.9739 18.9826ZM77.8922 16.7695C78.364 16.7695 78.7805 16.6767 79.1418 16.491C79.5031 16.3003 79.7866 16.0444 79.9924 15.7232C80.1981 15.402 80.301 15.0382 80.301 14.6317V13.4047C80.2007 13.47 80.0626 13.5302 79.887 13.5854C79.7164 13.6356 79.5232 13.6833 79.3074 13.7284C79.0916 13.7686 78.8758 13.8062 78.66 13.8413C78.4443 13.8714 78.2485 13.899 78.0729 13.9241C77.6965 13.9793 77.3678 14.0672 77.0868 14.1876C76.8058 14.308 76.5875 14.4711 76.4319 14.6769C76.2764 14.8776 76.1986 15.1285 76.1986 15.4296C76.1986 15.8662 76.3566 16.1999 76.6728 16.4308C76.994 16.6566 77.4005 16.7695 77.8922 16.7695Z" fill="white"/>
<path d="M85.9729 18.7643V7.20215H89.1796V18.7643H85.9729ZM87.5838 5.71173C87.1071 5.71173 86.6981 5.55365 86.3568 5.2375C86.0206 4.91633 85.8525 4.53243 85.8525 4.0858C85.8525 3.64419 86.0206 3.26531 86.3568 2.94916C86.6981 2.62799 87.1071 2.46741 87.5838 2.46741C88.0605 2.46741 88.467 2.62799 88.8032 2.94916C89.1445 3.26531 89.3151 3.64419 89.3151 4.0858C89.3151 4.53243 89.1445 4.91633 88.8032 5.2375C88.467 5.55365 88.0605 5.71173 87.5838 5.71173Z" fill="white"/>
<path d="M94.955 12.0799V18.7643H91.7483V7.20215H94.8045V9.24209H94.94C95.1959 8.56964 95.625 8.0377 96.2272 7.64627C96.8294 7.24983 97.5595 7.05161 98.4176 7.05161C99.2206 7.05161 99.9206 7.22725 100.518 7.57853C101.115 7.92981 101.579 8.43163 101.91 9.08401C102.242 9.73137 102.407 10.5042 102.407 11.4025V18.7643H99.2005V11.9745C99.2055 11.267 99.0248 10.715 98.6585 10.3185C98.2922 9.91704 97.7878 9.71631 97.1455 9.71631C96.7139 9.71631 96.3325 9.80915 96.0013 9.99483C95.6751 10.1805 95.4192 10.4515 95.2335 10.8078C95.0529 11.1591 94.96 11.5831 94.955 12.0799Z" fill="white"/>
<path d="M106.871 11.8088V18.7642H105.095V3.34802H106.871V9.00864H107.022C107.293 8.41147 107.699 7.93724 108.241 7.58596C108.788 7.22966 109.516 7.05151 110.424 7.05151C111.212 7.05151 111.902 7.20959 112.494 7.52574C113.086 7.83687 113.545 8.31612 113.872 8.96348C114.203 9.60582 114.368 10.4238 114.368 11.4174V18.7642H112.592V11.5379C112.592 10.6195 112.353 9.90942 111.877 9.4076C111.405 8.90075 110.75 8.64733 109.912 8.64733C109.33 8.64733 108.808 8.77027 108.346 9.01617C107.89 9.26207 107.528 9.62087 107.262 10.0926C107.001 10.5643 106.871 11.1364 106.871 11.8088Z" fill="white"/>
<path d="M124.905 14.037V7.20206H126.681V18.7642H124.905V16.807H124.784C124.513 17.3942 124.092 17.8935 123.52 18.305C122.948 18.7115 122.225 18.9147 121.352 18.9147C120.629 18.9147 119.987 18.7567 119.425 18.4405C118.863 18.1193 118.421 17.6376 118.1 16.9952C117.779 16.3479 117.618 15.5324 117.618 14.5488V7.20206H119.395V14.4284C119.395 15.2715 119.631 15.9439 120.102 16.4457C120.579 16.9476 121.186 17.1985 121.924 17.1985C122.366 17.1985 122.815 17.0856 123.271 16.8597C123.733 16.6339 124.119 16.2877 124.431 15.821C124.747 15.3543 124.905 14.7596 124.905 14.037Z" fill="white"/>
<path d="M130.176 18.7642V3.34802H131.952V9.03875H132.103C132.233 8.83802 132.414 8.58209 132.645 8.27096C132.881 7.9548 133.217 7.67378 133.654 7.42788C134.095 7.17697 134.692 7.05151 135.445 7.05151C136.419 7.05151 137.277 7.2949 138.019 7.78167C138.762 8.26845 139.342 8.95846 139.758 9.85171C140.175 10.745 140.383 11.7988 140.383 13.0132C140.383 14.2377 140.175 15.2991 139.758 16.1973C139.342 17.0906 138.765 17.7831 138.027 18.2749C137.289 18.7617 136.439 19.0051 135.475 19.0051C134.733 19.0051 134.138 18.8821 133.691 18.6362C133.245 18.3853 132.901 18.1018 132.66 17.7856C132.419 17.4644 132.233 17.1985 132.103 16.9877H131.892V18.7642H130.176ZM131.922 12.9831C131.922 13.8563 132.05 14.6266 132.306 15.294C132.562 15.9565 132.936 16.4758 133.428 16.8522C133.92 17.2236 134.522 17.4092 135.234 17.4092C135.977 17.4092 136.597 17.2135 137.094 16.8221C137.595 16.4257 137.972 15.8937 138.223 15.2263C138.479 14.5538 138.607 13.8061 138.607 12.9831C138.607 12.1702 138.481 11.4375 138.23 10.7851C137.984 10.1277 137.61 9.60833 137.109 9.22694C136.612 8.84053 135.987 8.64733 135.234 8.64733C134.512 8.64733 133.904 8.83049 133.413 9.19683C132.921 9.55814 132.55 10.065 132.299 10.7174C132.048 11.3647 131.922 12.12 131.922 12.9831Z" fill="white"/>
<path d="M106.312 25.8877C106.013 25.8877 105.754 25.8241 105.535 25.6969C105.318 25.5683 105.15 25.3897 105.032 25.1609C104.914 24.9308 104.854 24.6641 104.854 24.3608C104.854 24.0549 104.914 23.7876 105.032 23.5588C105.15 23.3287 105.318 23.1501 105.535 23.0228C105.754 22.8943 106.013 22.83 106.312 22.83C106.611 22.83 106.87 22.8943 107.087 23.0228C107.306 23.1501 107.474 23.3287 107.592 23.5588C107.71 23.7876 107.77 24.0549 107.77 24.3608C107.77 24.6641 107.71 24.9308 107.592 25.1609C107.474 25.3897 107.306 25.5683 107.087 25.6969C106.87 25.8241 106.611 25.8877 106.312 25.8877ZM106.316 25.2515C106.452 25.2515 106.566 25.213 106.657 25.1358C106.748 25.0574 106.817 24.9508 106.863 24.8158C106.911 24.6809 106.935 24.5273 106.935 24.355C106.935 24.1828 106.911 24.0292 106.863 23.8943C106.817 23.7593 106.748 23.6526 106.657 23.5742C106.566 23.4958 106.452 23.4566 106.316 23.4566C106.178 23.4566 106.063 23.4958 105.969 23.5742C105.876 23.6526 105.806 23.7593 105.759 23.8943C105.712 24.0292 105.689 24.1828 105.689 24.355C105.689 24.5273 105.712 24.6809 105.759 24.8158C105.806 24.9508 105.876 25.0574 105.969 25.1358C106.063 25.213 106.178 25.2515 106.316 25.2515Z" fill="white"/>
<path d="M109.125 21.8815V25.8299H108.304V21.8815H109.125Z" fill="white"/>
<path d="M111.132 25.8877C110.828 25.8877 110.565 25.826 110.346 25.7027C110.127 25.578 109.959 25.4019 109.841 25.1744C109.722 24.9456 109.663 24.6751 109.663 24.3627C109.663 24.0581 109.722 23.7908 109.841 23.5607C109.959 23.3307 110.125 23.1514 110.34 23.0228C110.556 22.8943 110.809 22.83 111.1 22.83C111.295 22.83 111.477 22.8615 111.645 22.9245C111.815 22.9862 111.963 23.0794 112.089 23.2041C112.216 23.3287 112.315 23.4855 112.385 23.6745C112.456 23.8621 112.491 24.0819 112.491 24.3338V24.5594H109.991V24.0504H111.718C111.718 23.9322 111.693 23.8274 111.641 23.7362C111.59 23.6449 111.519 23.5736 111.427 23.5222C111.337 23.4695 111.233 23.4431 111.113 23.4431C110.988 23.4431 110.878 23.472 110.781 23.5299C110.686 23.5864 110.612 23.6629 110.558 23.7593C110.504 23.8544 110.476 23.9604 110.475 24.0774V24.5613C110.475 24.7078 110.502 24.8344 110.556 24.9411C110.611 25.0478 110.689 25.1301 110.789 25.1879C110.889 25.2457 111.008 25.2747 111.146 25.2747C111.237 25.2747 111.321 25.2618 111.396 25.2361C111.472 25.2104 111.537 25.1718 111.591 25.1204C111.645 25.069 111.686 25.006 111.715 24.9315L112.474 24.9816C112.436 25.1641 112.357 25.3235 112.237 25.4597C112.119 25.5947 111.966 25.7001 111.778 25.7759C111.592 25.8505 111.377 25.8877 111.132 25.8877Z" fill="white"/>
<path d="M113.849 24.1179V25.8299H113.027V21.8815H113.826V23.3911H113.86C113.927 23.2163 114.035 23.0794 114.184 22.9804C114.333 22.8802 114.52 22.83 114.745 22.83C114.951 22.83 115.13 22.875 115.283 22.965C115.437 23.0537 115.557 23.1816 115.642 23.3487C115.728 23.5145 115.77 23.713 115.769 23.9444V25.8299H114.948V24.0909C114.949 23.9084 114.903 23.7664 114.809 23.6648C114.716 23.5633 114.587 23.5125 114.419 23.5125C114.308 23.5125 114.209 23.5363 114.123 23.5839C114.038 23.6314 113.971 23.7008 113.922 23.7921C113.874 23.882 113.85 23.9907 113.849 24.1179Z" fill="white"/>
<path d="M117.687 25.8299V21.8815H118.522V23.6224H118.574L119.995 21.8815H120.996L119.53 23.6494L121.013 25.8299H120.014L118.933 24.2066L118.522 24.7078V25.8299H117.687Z" fill="white"/>
<path d="M122.547 25.8877C122.242 25.8877 121.98 25.826 121.76 25.7027C121.542 25.578 121.374 25.4019 121.255 25.1744C121.137 24.9456 121.078 24.6751 121.078 24.3627C121.078 24.0581 121.137 23.7908 121.255 23.5607C121.374 23.3307 121.54 23.1514 121.755 23.0228C121.971 22.8943 122.224 22.83 122.514 22.83C122.71 22.83 122.892 22.8615 123.06 22.9245C123.23 22.9862 123.377 23.0794 123.503 23.2041C123.631 23.3287 123.73 23.4855 123.8 23.6745C123.871 23.8621 123.906 24.0819 123.906 24.3338V24.5594H121.406V24.0504H123.133C123.133 23.9322 123.107 23.8274 123.056 23.7362C123.005 23.6449 122.933 23.5736 122.842 23.5222C122.752 23.4695 122.647 23.4431 122.528 23.4431C122.403 23.4431 122.293 23.472 122.196 23.5299C122.101 23.5864 122.027 23.6629 121.973 23.7593C121.919 23.8544 121.891 23.9604 121.89 24.0774V24.5613C121.89 24.7078 121.917 24.8344 121.971 24.9411C122.026 25.0478 122.104 25.1301 122.204 25.1879C122.304 25.2457 122.423 25.2747 122.561 25.2747C122.652 25.2747 122.735 25.2618 122.811 25.2361C122.887 25.2104 122.952 25.1718 123.006 25.1204C123.06 25.069 123.101 25.006 123.129 24.9315L123.889 24.9816C123.85 25.1641 123.771 25.3235 123.652 25.4597C123.534 25.5947 123.381 25.7001 123.193 25.7759C123.007 25.8505 122.791 25.8877 122.547 25.8877Z" fill="white"/>
<path d="M124.442 25.8299V22.8686H125.225V23.3911H125.26C125.321 23.2176 125.424 23.0807 125.568 22.9804C125.712 22.8802 125.884 22.83 126.085 22.83C126.288 22.83 126.461 22.8808 126.603 22.9823C126.746 23.0826 126.841 23.2188 126.889 23.3911H126.92C126.98 23.2214 127.089 23.0858 127.247 22.9843C127.407 22.8815 127.595 22.83 127.812 22.83C128.089 22.83 128.313 22.9181 128.485 23.0942C128.659 23.269 128.745 23.517 128.745 23.8383V25.8299H127.926V24.0003C127.926 23.8358 127.882 23.7124 127.795 23.6301C127.707 23.5479 127.598 23.5067 127.467 23.5067C127.318 23.5067 127.202 23.5543 127.118 23.6494C127.035 23.7432 126.993 23.8673 126.993 24.0215V25.8299H126.197V23.9829C126.197 23.8377 126.155 23.722 126.071 23.6359C125.989 23.5498 125.88 23.5067 125.746 23.5067C125.654 23.5067 125.572 23.5299 125.499 23.5761C125.427 23.6211 125.37 23.6848 125.327 23.767C125.285 23.848 125.264 23.9431 125.264 24.0523V25.8299H124.442Z" fill="white"/>
<path d="M130.215 24.1179V25.8299H129.394V22.8686H130.177V23.3911H130.212C130.277 23.2188 130.387 23.0826 130.541 22.9823C130.695 22.8808 130.882 22.83 131.102 22.83C131.308 22.83 131.487 22.875 131.64 22.965C131.793 23.055 131.912 23.1835 131.997 23.3506C132.082 23.5164 132.124 23.7143 132.124 23.9444V25.8299H131.303V24.0909C131.304 23.9097 131.258 23.7683 131.164 23.6668C131.07 23.5639 130.941 23.5125 130.776 23.5125C130.666 23.5125 130.568 23.5363 130.483 23.5839C130.4 23.6314 130.334 23.7008 130.287 23.7921C130.24 23.882 130.217 23.9907 130.215 24.1179Z" fill="white"/>
<path d="M133.616 25.8858C133.427 25.8858 133.258 25.853 133.111 25.7875C132.963 25.7206 132.846 25.6223 132.76 25.4925C132.675 25.3614 132.633 25.1982 132.633 25.0028C132.633 24.8383 132.663 24.7001 132.723 24.5883C132.784 24.4765 132.866 24.3865 132.97 24.3184C133.074 24.2503 133.192 24.1989 133.325 24.1642C133.458 24.1295 133.598 24.105 133.745 24.0909C133.917 24.0729 134.056 24.0562 134.161 24.0408C134.267 24.0241 134.343 23.9996 134.391 23.9675C134.438 23.9354 134.462 23.8878 134.462 23.8249V23.8133C134.462 23.6912 134.424 23.5967 134.346 23.5299C134.271 23.463 134.163 23.4296 134.023 23.4296C133.875 23.4296 133.757 23.4624 133.67 23.5279C133.582 23.5922 133.525 23.6732 133.496 23.7709L132.737 23.7092C132.775 23.5292 132.851 23.3737 132.964 23.2426C133.077 23.1102 133.223 23.0087 133.402 22.938C133.582 22.866 133.79 22.83 134.026 22.83C134.191 22.83 134.348 22.8493 134.499 22.8879C134.65 22.9264 134.785 22.9862 134.902 23.0672C135.02 23.1481 135.113 23.2523 135.181 23.3795C135.249 23.5055 135.283 23.6565 135.283 23.8326V25.8299H134.505V25.4192H134.481C134.434 25.5118 134.37 25.5934 134.291 25.6641C134.211 25.7335 134.115 25.7881 134.003 25.828C133.891 25.8665 133.762 25.8858 133.616 25.8858ZM133.851 25.319C133.972 25.319 134.078 25.2952 134.171 25.2477C134.264 25.1988 134.336 25.1333 134.389 25.051C134.442 24.9688 134.468 24.8756 134.468 24.7715V24.4572C134.442 24.4739 134.407 24.4893 134.362 24.5035C134.318 24.5163 134.269 24.5285 134.213 24.5401C134.158 24.5504 134.103 24.56 134.048 24.569C133.992 24.5767 133.942 24.5838 133.897 24.5902C133.801 24.6044 133.717 24.6269 133.645 24.6577C133.573 24.6886 133.517 24.7303 133.477 24.783C133.437 24.8344 133.417 24.8987 133.417 24.9758C133.417 25.0876 133.458 25.1731 133.539 25.2322C133.621 25.2901 133.725 25.319 133.851 25.319Z" fill="white"/>
<path d="M136.665 24.9778L136.667 23.9926H136.786L137.735 22.8686H138.678L137.403 24.357H137.208L136.665 24.9778ZM135.921 25.8299V21.8815H136.742V25.8299H135.921ZM137.771 25.8299L136.9 24.5401L137.448 23.9598L138.733 25.8299H137.771Z" fill="white"/>
<path d="M140.308 25.8877C140.003 25.8877 139.741 25.826 139.522 25.7027C139.303 25.578 139.135 25.4019 139.016 25.1744C138.898 24.9456 138.839 24.6751 138.839 24.3627C138.839 24.0581 138.898 23.7908 139.016 23.5607C139.135 23.3307 139.301 23.1514 139.516 23.0228C139.732 22.8943 139.985 22.83 140.275 22.83C140.471 22.83 140.653 22.8615 140.821 22.9245C140.991 22.9862 141.138 23.0794 141.264 23.2041C141.392 23.3287 141.491 23.4855 141.561 23.6745C141.632 23.8621 141.667 24.0819 141.667 24.3338V24.5594H139.167V24.0504H140.894C140.894 23.9322 140.868 23.8274 140.817 23.7362C140.766 23.6449 140.694 23.5736 140.603 23.5222C140.513 23.4695 140.408 23.4431 140.289 23.4431C140.164 23.4431 140.054 23.472 139.957 23.5299C139.862 23.5864 139.788 23.6629 139.734 23.7593C139.68 23.8544 139.652 23.9604 139.651 24.0774V24.5613C139.651 24.7078 139.678 24.8344 139.732 24.9411C139.787 25.0478 139.865 25.1301 139.965 25.1879C140.065 25.2457 140.184 25.2747 140.322 25.2747C140.413 25.2747 140.496 25.2618 140.572 25.2361C140.648 25.2104 140.713 25.1718 140.767 25.1204C140.821 25.069 140.862 25.006 140.89 24.9315L141.65 24.9816C141.611 25.1641 141.532 25.3235 141.413 25.4597C141.295 25.5947 141.142 25.7001 140.954 25.7759C140.768 25.8505 140.552 25.8877 140.308 25.8877Z" fill="white"/>
<path d="M142.203 25.8299V22.8686H142.999V23.3853H143.03C143.084 23.2015 143.175 23.0627 143.302 22.9689C143.429 22.8737 143.576 22.8262 143.742 22.8262C143.783 22.8262 143.827 22.8288 143.875 22.8339C143.922 22.839 143.964 22.8461 144 22.8551V23.5839C143.962 23.5723 143.908 23.562 143.84 23.553C143.772 23.544 143.71 23.5395 143.653 23.5395C143.532 23.5395 143.424 23.5659 143.329 23.6186C143.235 23.67 143.161 23.7419 143.106 23.8345C143.052 23.927 143.025 24.0337 143.025 24.1545V25.8299H142.203Z" fill="white"/>
</svg>
