<svg width="342" height="56" viewBox="0 0 342 56" fill="none" xmlns="http://www.w3.org/2000/svg">
<path fill-rule="evenodd" clip-rule="evenodd" d="M0 21.5675C0 9.20365 10.9655 0 23.4277 0C35.8899 0 46.8554 9.20365 46.8554 21.5675V42.1973C46.8554 44.7867 44.7576 46.8858 42.1699 46.8858C39.5821 46.8858 37.4843 44.7867 37.4843 42.1973V21.5675C37.4843 15.2874 31.6675 9.37717 23.4277 9.37717C15.1879 9.37717 9.37108 15.2874 9.37108 21.5675V42.1973C9.37108 44.7867 7.27329 46.8858 4.68554 46.8858C2.09779 46.8858 0 44.7867 0 42.1973V21.5675Z" fill="#026792"/>
<path d="M30.456 35.1644C30.456 39.0486 27.3093 42.1973 23.4277 42.1973C19.5461 42.1973 16.3994 39.0486 16.3994 35.1644C16.3994 31.2803 19.5461 28.1315 23.4277 28.1315C27.3093 28.1315 30.456 31.2803 30.456 35.1644Z" fill="#026792"/>
<path d="M272.156 56C271.601 56 271.121 55.8682 270.716 55.6047C270.313 55.3386 270.002 54.9686 269.783 54.4948C269.564 54.0184 269.455 53.4661 269.455 52.838C269.455 52.2045 269.564 51.6509 269.783 51.1771C270.002 50.7007 270.313 50.3307 270.716 50.0672C271.121 49.8011 271.601 49.668 272.156 49.668C272.711 49.668 273.189 49.8011 273.592 50.0672C273.997 50.3307 274.309 50.7007 274.528 51.1771C274.747 51.6509 274.857 52.2045 274.857 52.838C274.857 53.4661 274.747 54.0184 274.528 54.4948C274.309 54.9686 273.997 55.3386 273.592 55.6047C273.189 55.8682 272.711 56 272.156 56ZM272.163 54.6825C272.415 54.6825 272.626 54.6026 272.795 54.4429C272.964 54.2806 273.092 54.0597 273.177 53.7802C273.266 53.5007 273.31 53.1827 273.31 52.826C273.31 52.4693 273.266 52.1513 273.177 51.8718C273.092 51.5923 272.964 51.3714 272.795 51.2091C272.626 51.0467 272.415 50.9655 272.163 50.9655C271.908 50.9655 271.694 51.0467 271.52 51.2091C271.348 51.3714 271.218 51.5923 271.13 51.8718C271.044 52.1513 271.002 52.4693 271.002 52.826C271.002 53.1827 271.044 53.5007 271.13 53.7802C271.218 54.0597 271.348 54.2806 271.52 54.4429C271.694 54.6026 271.908 54.6825 272.163 54.6825Z" fill="#8F8F8F"/>
<path d="M277.368 47.7037V55.8802H275.846V47.7037H277.368Z" fill="#8F8F8F"/>
<path d="M281.089 56C280.524 56 280.038 55.8722 279.631 55.6167C279.226 55.3585 278.914 54.9939 278.695 54.5228C278.476 54.049 278.366 53.4888 278.366 52.842C278.366 52.2112 278.476 51.6576 278.695 51.1811C278.914 50.7047 279.222 50.3334 279.62 50.0672C280.02 49.8011 280.49 49.668 281.028 49.668C281.39 49.668 281.727 49.7332 282.039 49.8636C282.354 49.9914 282.627 50.1843 282.861 50.4425C283.097 50.7007 283.28 51.0254 283.411 51.4167C283.542 51.8053 283.608 52.2604 283.608 52.7821V53.2492H278.974V52.1952H282.175C282.175 51.9503 282.127 51.7334 282.032 51.5444C281.937 51.3555 281.804 51.2077 281.635 51.1013C281.469 50.9921 281.275 50.9376 281.053 50.9376C280.822 50.9376 280.617 50.9975 280.438 51.1172C280.262 51.2344 280.124 51.3927 280.024 51.5923C279.924 51.7893 279.873 52.0089 279.87 52.2511V53.2532C279.87 53.5566 279.92 53.8188 280.02 54.0397C280.123 54.2606 280.267 54.431 280.453 54.5507C280.639 54.6705 280.859 54.7304 281.114 54.7304C281.283 54.7304 281.438 54.7038 281.578 54.6506C281.719 54.5973 281.839 54.5175 281.939 54.411C282.039 54.3045 282.115 54.1741 282.168 54.0197L283.575 54.1235C283.504 54.5015 283.357 54.8315 283.136 55.1137C282.917 55.3931 282.633 55.6114 282.286 55.7684C281.94 55.9228 281.541 56 281.089 56Z" fill="#8F8F8F"/>
<path d="M286.123 52.3349V55.8802H284.601V47.7037H286.08V50.8298H286.144C286.268 50.4678 286.468 50.1843 286.745 49.9794C287.021 49.7718 287.367 49.668 287.784 49.668C288.165 49.668 288.498 49.7611 288.781 49.9475C289.067 50.1311 289.288 50.3959 289.446 50.742C289.605 51.0853 289.684 51.4965 289.681 51.9756V55.8802H288.159V52.279C288.162 51.9011 288.076 51.607 287.902 51.3967C287.731 51.1864 287.49 51.0813 287.18 51.0813C286.973 51.0813 286.79 51.1305 286.63 51.229C286.473 51.3275 286.349 51.4712 286.259 51.6602C286.171 51.8465 286.125 52.0714 286.123 52.3349Z" fill="#8F8F8F"/>
<path d="M293.237 55.8802V47.7037H294.784V51.3089H294.88L297.513 47.7037H299.368L296.652 51.3648L299.4 55.8802H297.549L295.545 52.5186L294.784 53.5566V55.8802H293.237Z" fill="#8F8F8F"/>
<path d="M302.243 56C301.678 56 301.192 55.8722 300.785 55.6167C300.38 55.3585 300.068 54.9939 299.849 54.5228C299.63 54.049 299.52 53.4888 299.52 52.842C299.52 52.2112 299.63 51.6576 299.849 51.1811C300.068 50.7047 300.377 50.3334 300.774 50.0672C301.175 49.8011 301.644 49.668 302.182 49.668C302.544 49.668 302.881 49.7332 303.193 49.8636C303.508 49.9914 303.782 50.1843 304.015 50.4425C304.251 50.7007 304.434 51.0254 304.565 51.4167C304.696 51.8053 304.762 52.2604 304.762 52.7821V53.2492H300.128V52.1952H303.329C303.329 51.9503 303.281 51.7334 303.186 51.5444C303.091 51.3555 302.959 51.2077 302.789 51.1013C302.623 50.9921 302.429 50.9376 302.207 50.9376C301.976 50.9376 301.771 50.9975 301.593 51.1172C301.416 51.2344 301.278 51.3927 301.178 51.5923C301.078 51.7893 301.027 52.0089 301.024 52.2511V53.2532C301.024 53.5566 301.074 53.8188 301.175 54.0397C301.277 54.2606 301.421 54.431 301.607 54.5507C301.793 54.6705 302.013 54.7304 302.268 54.7304C302.437 54.7304 302.592 54.7038 302.732 54.6506C302.873 54.5973 302.993 54.5175 303.093 54.411C303.193 54.3045 303.269 54.1741 303.322 54.0197L304.73 54.1235C304.658 54.5015 304.512 54.8315 304.29 55.1137C304.071 55.3931 303.787 55.6114 303.44 55.7684C303.094 55.9228 302.695 56 302.243 56Z" fill="#8F8F8F"/>
<path d="M305.755 55.8802V49.7478H307.206V50.8298H307.27C307.384 50.4705 307.575 50.187 307.842 49.9794C308.108 49.7718 308.427 49.668 308.799 49.668C309.175 49.668 309.496 49.7731 309.76 49.9834C310.025 50.191 310.201 50.4731 310.289 50.8298H310.346C310.458 50.4785 310.661 50.1976 310.953 49.9874C311.249 49.7745 311.598 49.668 312 49.668C312.512 49.668 312.928 49.8503 313.247 50.2149C313.569 50.5769 313.73 51.0906 313.73 51.756V55.8802H312.211V52.0914C312.211 51.7507 312.13 51.4952 311.968 51.3248C311.806 51.1545 311.604 51.0693 311.361 51.0693C311.084 51.0693 310.869 51.1678 310.714 51.3648C310.559 51.5591 310.482 51.8159 310.482 52.1353V55.8802H309.006V52.0555C309.006 51.7547 308.929 51.5152 308.774 51.3368C308.622 51.1585 308.42 51.0693 308.17 51.0693C308.001 51.0693 307.849 51.1172 307.713 51.2131C307.58 51.3062 307.474 51.438 307.395 51.6083C307.316 51.776 307.277 51.973 307.277 52.1992V55.8802H305.755Z" fill="#8F8F8F"/>
<path d="M316.454 52.3349V55.8802H314.932V49.7478H316.382V50.8298H316.447C316.568 50.4731 316.772 50.191 317.058 49.9834C317.344 49.7731 317.69 49.668 318.097 49.668C318.479 49.668 318.811 49.7611 319.094 49.9475C319.378 50.1338 319.598 50.3999 319.755 50.7459C319.912 51.0893 319.991 51.4992 319.991 51.9756V55.8802H318.469V52.279C318.471 51.9038 318.386 51.611 318.212 51.4007C318.038 51.1878 317.799 51.0813 317.494 51.0813C317.289 51.0813 317.108 51.1305 316.951 51.229C316.796 51.3275 316.674 51.4712 316.586 51.6602C316.5 51.8465 316.456 52.0714 316.454 52.3349Z" fill="#8F8F8F"/>
<path d="M322.756 55.996C322.405 55.996 322.093 55.9281 321.819 55.7924C321.546 55.654 321.329 55.4504 321.169 55.1815C321.012 54.9101 320.933 54.572 320.933 54.1675C320.933 53.8268 320.989 53.5407 321.101 53.3091C321.213 53.0775 321.366 52.8912 321.559 52.7502C321.752 52.6091 321.971 52.5026 322.216 52.4308C322.464 52.3589 322.723 52.3083 322.995 52.279C323.314 52.2418 323.571 52.2072 323.767 52.1752C323.962 52.1406 324.104 52.0901 324.192 52.0235C324.28 51.957 324.324 51.8585 324.324 51.7281V51.7041C324.324 51.4513 324.253 51.2556 324.11 51.1172C323.969 50.9788 323.769 50.9096 323.509 50.9096C323.236 50.9096 323.018 50.9775 322.856 51.1132C322.694 51.2463 322.586 51.414 322.534 51.6163L321.126 51.4885C321.198 51.1159 321.338 50.7939 321.548 50.5224C321.758 50.2482 322.028 50.038 322.359 49.8916C322.692 49.7425 323.078 49.668 323.517 49.668C323.821 49.668 324.113 49.7079 324.392 49.7878C324.673 49.8676 324.922 49.9914 325.139 50.1591C325.358 50.3267 325.531 50.5423 325.657 50.8058C325.783 51.0667 325.846 51.3794 325.846 51.7441V55.8802H324.403V55.0298H324.36C324.272 55.2215 324.154 55.3905 324.006 55.5369C323.858 55.6806 323.681 55.7937 323.474 55.8762C323.266 55.9561 323.027 55.996 322.756 55.996ZM323.191 54.8222C323.415 54.8222 323.613 54.773 323.785 54.6745C323.956 54.5734 324.091 54.4376 324.188 54.2673C324.286 54.0969 324.335 53.904 324.335 53.6884V53.0376C324.287 53.0722 324.222 53.1041 324.138 53.1334C324.057 53.16 323.966 53.1853 323.863 53.2093C323.761 53.2306 323.658 53.2505 323.556 53.2692C323.453 53.2851 323.361 53.2998 323.277 53.3131C323.099 53.3424 322.943 53.3889 322.809 53.4528C322.676 53.5167 322.572 53.6032 322.498 53.7123C322.424 53.8188 322.388 53.9519 322.388 54.1116C322.388 54.3431 322.463 54.5201 322.613 54.6426C322.765 54.7623 322.958 54.8222 323.191 54.8222Z" fill="#8F8F8F"/>
<path d="M328.406 54.1156L328.41 52.0754H328.631L330.389 49.7478H332.136L329.774 52.83H329.414L328.406 54.1156ZM327.027 55.8802V47.7037H328.549V55.8802H327.027ZM330.457 55.8802L328.842 53.2093L329.857 52.0076L332.24 55.8802H330.457Z" fill="#8F8F8F"/>
<path d="M335.158 56C334.593 56 334.108 55.8722 333.7 55.6167C333.295 55.3585 332.983 54.9939 332.764 54.5228C332.545 54.049 332.435 53.4888 332.435 52.842C332.435 52.2112 332.545 51.6576 332.764 51.1811C332.983 50.7047 333.292 50.3334 333.689 50.0672C334.09 49.8011 334.559 49.668 335.097 49.668C335.459 49.668 335.796 49.7332 336.108 49.8636C336.423 49.9914 336.697 50.1843 336.93 50.4425C337.166 50.7007 337.349 51.0254 337.48 51.4167C337.611 51.8053 337.677 52.2604 337.677 52.7821V53.2492H333.043V52.1952H336.244C336.244 51.9503 336.196 51.7334 336.101 51.5444C336.006 51.3555 335.874 51.2077 335.705 51.1013C335.538 50.9921 335.344 50.9376 335.122 50.9376C334.891 50.9376 334.686 50.9975 334.508 51.1172C334.331 51.2344 334.193 51.3927 334.093 51.5923C333.993 51.7893 333.942 52.0089 333.94 52.2511V53.2532C333.94 53.5566 333.99 53.8188 334.09 54.0397C334.192 54.2606 334.336 54.431 334.522 54.5507C334.708 54.6705 334.928 54.7304 335.183 54.7304C335.352 54.7304 335.507 54.7038 335.647 54.6506C335.788 54.5973 335.908 54.5175 336.008 54.411C336.108 54.3045 336.185 54.1741 336.237 54.0197L337.645 54.1235C337.573 54.5015 337.427 54.8315 337.205 55.1137C336.986 55.3931 336.703 55.6114 336.355 55.7684C336.009 55.9228 335.61 56 335.158 56Z" fill="#8F8F8F"/>
<path d="M338.67 55.8802V49.7478H340.146V50.8178H340.203C340.303 50.4372 340.471 50.1497 340.707 49.9554C340.942 49.7585 341.214 49.66 341.521 49.66C341.597 49.66 341.68 49.6653 341.768 49.676C341.856 49.6866 341.933 49.7013 342 49.7199V51.229C341.929 51.2051 341.83 51.1838 341.703 51.1652C341.577 51.1465 341.462 51.1372 341.357 51.1372C341.133 51.1372 340.933 51.1918 340.757 51.3009C340.583 51.4074 340.445 51.5564 340.342 51.748C340.242 51.9397 340.192 52.1606 340.192 52.4108V55.8802H338.67Z" fill="#8F8F8F"/>
<path d="M60.1091 43.1425V10.7835H74.2333C77.5941 10.7835 80.1872 11.5332 82.0124 13.0325C83.8377 14.5319 84.7504 16.5821 84.7504 19.183C84.7504 21.1108 84.1999 22.7479 83.0989 24.0943C82.0269 25.4406 80.5493 26.3433 78.6661 26.8023V26.0679C80.868 26.4657 82.5629 27.3531 83.7508 28.7301C84.9677 30.0765 85.5761 31.8359 85.5761 34.0085C85.5761 36.8849 84.6055 39.1339 82.6643 40.7557C80.7521 42.3469 78.1011 43.1425 74.7113 43.1425H60.1091ZM66.5845 37.8181H73.8856C75.566 37.8181 76.8553 37.4815 77.7535 36.8084C78.6516 36.1352 79.1007 35.0642 79.1007 33.5954C79.1007 32.096 78.6516 31.025 77.7535 30.3825C76.8553 29.7093 75.566 29.3727 73.8856 29.3727H66.5845V37.8181ZM66.5845 24.0943H73.0164C74.7838 24.0943 76.0875 23.7577 76.9277 23.0845C77.7679 22.4113 78.188 21.4015 78.188 20.0551C78.188 18.7393 77.7679 17.7449 76.9277 17.0717C76.0875 16.3985 74.7838 16.0619 73.0164 16.0619H66.5845V24.0943Z" fill="#303030"/>
<path d="M90.3691 43.1425V10.7835H97.1488V37.1297H110.969V43.1425H90.3691Z" fill="#303030"/>
<path d="M115.112 43.1425V10.7835H121.892V24.8745H121.978L134.538 10.7835H142.578L127.15 27.7203L127.194 24.7827L143.534 43.1425H135.233L121.978 28.3629H121.892V43.1425H115.112Z" fill="#303030"/>
<path d="M144.863 43.1425V10.7835H151.642V24.8745H151.729L164.289 10.7835H172.329L156.901 27.7203L156.944 24.7827L173.285 43.1425H164.984L151.729 28.3629H151.642V43.1425H144.863Z" fill="#303030"/>
<path d="M193.659 43.5556C190.588 43.5556 187.98 42.8824 185.836 41.536C183.692 40.1896 182.041 38.2771 180.882 35.7986C179.752 33.32 179.187 30.3672 179.187 26.94C179.187 23.5129 179.752 20.5753 180.882 18.1274C182.041 15.6488 183.692 13.7363 185.836 12.3899C187.98 11.0436 190.588 10.3704 193.659 10.3704C195.832 10.3704 197.773 10.7223 199.482 11.4261C201.192 12.1298 202.684 13.1549 203.959 14.5013L202.611 17.5307C201.221 16.2455 199.844 15.3122 198.483 14.7308C197.121 14.1188 195.527 13.8128 193.702 13.8128C190.196 13.8128 187.531 14.9603 185.706 17.2553C183.88 19.5502 182.968 22.7785 182.968 26.94C182.968 31.1015 183.88 34.3451 185.706 36.6707C187.531 38.9656 190.196 40.1131 193.702 40.1131C195.527 40.1131 197.121 39.8224 198.483 39.241C199.844 38.629 201.221 37.6651 202.611 36.3494L203.959 39.4246C202.684 40.7404 201.192 41.7655 199.482 42.4999C197.773 43.2037 195.832 43.5556 193.659 43.5556Z" fill="#303030"/>
<path d="M217.059 43.5556C214.973 43.5556 213.147 43.0813 211.583 42.1327C210.047 41.1535 208.859 39.7765 208.019 38.0017C207.179 36.1964 206.759 34.0697 206.759 31.6217C206.759 29.1432 207.179 27.0165 208.019 25.2417C208.859 23.467 210.047 22.1053 211.583 21.1567C213.147 20.1775 214.973 19.6879 217.059 19.6879C219.174 19.6879 220.999 20.1775 222.535 21.1567C224.099 22.1053 225.301 23.467 226.142 25.2417C227.011 27.0165 227.445 29.1432 227.445 31.6217C227.445 34.0697 227.011 36.1964 226.142 38.0017C225.301 39.7765 224.099 41.1535 222.535 42.1327C220.999 43.0813 219.174 43.5556 217.059 43.5556ZM217.059 40.5262C219.145 40.5262 220.796 39.7765 222.013 38.2771C223.23 36.7472 223.838 34.5287 223.838 31.6217C223.838 28.6842 223.215 26.4657 221.97 24.9663C220.753 23.4364 219.116 22.6714 217.059 22.6714C215.002 22.6714 213.365 23.4364 212.148 24.9663C210.931 26.4657 210.323 28.6842 210.323 31.6217C210.323 34.5287 210.931 36.7472 212.148 38.2771C213.365 39.7765 215.002 40.5262 217.059 40.5262Z" fill="#303030"/>
<path d="M232.934 43.1425V25.4253C232.934 24.5685 232.89 23.6965 232.803 22.8091C232.745 21.8911 232.673 20.9884 232.586 20.101H235.976L236.411 25.1499H235.889C236.526 23.3752 237.54 22.0288 238.931 21.1108C240.351 20.1622 241.988 19.6879 243.842 19.6879C246.421 19.6879 248.362 20.4223 249.666 21.8911C250.998 23.3293 251.665 25.6089 251.665 28.7301V43.1425H248.144V28.9596C248.144 26.787 247.724 25.2111 246.884 24.232C246.073 23.2222 244.798 22.7173 243.06 22.7173C241.032 22.7173 239.424 23.3752 238.236 24.6909C237.048 26.0067 236.454 27.7662 236.454 29.9694V43.1425H232.934Z" fill="#303030"/>
<path d="M258.398 43.1425V25.4253C258.398 24.5685 258.355 23.6965 258.268 22.8091C258.21 21.8911 258.137 20.9884 258.05 20.101H261.44L261.875 25.1499H261.353C261.991 23.3752 263.005 22.0288 264.395 21.1108C265.815 20.1622 267.452 19.6879 269.306 19.6879C271.885 19.6879 273.826 20.4223 275.13 21.8911C276.463 23.3293 277.129 25.6089 277.129 28.7301V43.1425H273.609V28.9596C273.609 26.787 273.189 25.2111 272.348 24.232C271.537 23.2222 270.262 22.7173 268.524 22.7173C266.496 22.7173 264.888 23.3752 263.7 24.6909C262.512 26.0067 261.918 27.7662 261.918 29.9694V43.1425H258.398Z" fill="#303030"/>
<path d="M293.554 43.5556C290.135 43.5556 287.441 42.5152 285.47 40.4344C283.5 38.323 282.515 35.4008 282.515 31.6676C282.515 29.2503 282.95 27.1542 283.819 25.3794C284.688 23.5741 285.905 22.1818 287.469 21.2026C289.034 20.1928 290.83 19.6879 292.858 19.6879C294.858 19.6879 296.538 20.1316 297.9 21.019C299.261 21.9064 300.304 23.1763 301.029 24.8286C301.753 26.4504 302.115 28.3782 302.115 30.612V31.9889H285.21V29.6481H299.812L299.073 30.2448C299.073 27.7968 298.552 25.8843 297.509 24.5074C296.466 23.1304 294.915 22.4419 292.858 22.4419C290.685 22.4419 288.991 23.2528 287.774 24.8745C286.557 26.4657 285.948 28.623 285.948 31.3463V31.7594C285.948 34.6358 286.615 36.8237 287.948 38.323C289.309 39.7918 291.207 40.5262 293.641 40.5262C294.944 40.5262 296.161 40.3273 297.291 39.9295C298.45 39.5011 299.551 38.8126 300.594 37.864L301.811 40.4803C300.855 41.4595 299.638 42.2245 298.16 42.7753C296.712 43.2955 295.176 43.5556 293.554 43.5556Z" fill="#303030"/>
<path d="M316.672 43.5556C314.528 43.5556 312.659 43.066 311.065 42.0868C309.501 41.1076 308.284 39.7153 307.415 37.9099C306.575 36.1046 306.155 33.9626 306.155 31.484C306.155 28.9749 306.589 26.8482 307.458 25.104C308.327 23.3293 309.544 21.9829 311.109 21.0649C312.702 20.1469 314.557 19.6879 316.672 19.6879C318.062 19.6879 319.41 19.948 320.713 20.4682C322.046 20.9884 323.147 21.7228 324.016 22.6714L322.756 25.3335C321.887 24.4462 320.931 23.7883 319.888 23.3599C318.874 22.9315 317.874 22.7173 316.889 22.7173C314.629 22.7173 312.876 23.467 311.63 24.9663C310.385 26.4657 309.762 28.6536 309.762 31.5299C309.762 34.3757 310.385 36.5789 311.63 38.1394C312.876 39.7 314.629 40.4803 316.889 40.4803C317.845 40.4803 318.83 40.2814 319.844 39.8836C320.887 39.4858 321.858 38.8279 322.756 37.9099L324.016 40.5262C323.118 41.5054 322.003 42.2551 320.67 42.7753C319.337 43.2955 318.004 43.5556 316.672 43.5556Z" fill="#303030"/>
<path d="M336.755 43.5556C334.611 43.5556 332.974 42.913 331.844 41.6278C330.714 40.312 330.149 38.3383 330.149 35.7068V22.9927H325.89V20.101H330.149V13.8128L333.669 12.7571V20.101H339.927V22.9927H333.669V35.2937C333.669 37.1297 333.959 38.4454 334.538 39.241C335.147 40.006 336.045 40.3885 337.233 40.3885C337.783 40.3885 338.276 40.3426 338.71 40.2508C339.145 40.1284 339.536 39.9907 339.884 39.8377V42.9589C339.478 43.1425 338.986 43.2802 338.406 43.372C337.856 43.4944 337.305 43.5556 336.755 43.5556Z" fill="#303030"/>
</svg>
