<?xml version="1.0" encoding="utf-8"?>
<!-- Generator: Adobe Illustrator 24.3.0, SVG Export Plug-In . SVG Version: 6.00 Build 0)  -->
<svg version="1.1" id="Layer_1" xmlns="http://www.w3.org/2000/svg" xmlns:xlink="http://www.w3.org/1999/xlink" x="0px" y="0px"
	 viewBox="0 0 342 56" style="enable-background:new 0 0 342 56;" xml:space="preserve">
<style type="text/css">
	.st0{fill-rule:evenodd;clip-rule:evenodd;fill:#FFFFFF;}
	.st1{fill:#FFFFFF;}
	.st2{fill:#F7F7F7;}
</style>
<path class="st0" d="M0,21.6C0,9.2,11,0,23.4,0s23.4,9.2,23.4,21.6v20.6c0,2.6-2.1,4.7-4.7,4.7c-2.6,0-4.7-2.1-4.7-4.7V21.6
	c0-6.3-5.8-12.2-14.1-12.2S9.4,15.3,9.4,21.6v20.6c0,2.6-2.1,4.7-4.7,4.7S0,44.8,0,42.2V21.6z"/>
<path class="st1" d="M30.5,35.2c0,3.9-3.1,7-7,7s-7-3.1-7-7c0-3.9,3.1-7,7-7S30.5,31.3,30.5,35.2z"/>
<path class="st2" d="M272.2,56c-0.6,0-1-0.1-1.4-0.4c-0.4-0.3-0.7-0.6-0.9-1.1c-0.2-0.5-0.3-1-0.3-1.7c0-0.6,0.1-1.2,0.3-1.7
	c0.2-0.5,0.5-0.8,0.9-1.1c0.4-0.3,0.9-0.4,1.4-0.4s1,0.1,1.4,0.4c0.4,0.3,0.7,0.6,0.9,1.1c0.2,0.5,0.3,1,0.3,1.7
	c0,0.6-0.1,1.2-0.3,1.7c-0.2,0.5-0.5,0.8-0.9,1.1C273.2,55.9,272.7,56,272.2,56z M272.2,54.7c0.3,0,0.5-0.1,0.6-0.2
	c0.2-0.2,0.3-0.4,0.4-0.7c0.1-0.3,0.1-0.6,0.1-1s0-0.7-0.1-1c-0.1-0.3-0.2-0.5-0.4-0.7c-0.2-0.2-0.4-0.2-0.6-0.2
	c-0.3,0-0.5,0.1-0.6,0.2c-0.2,0.2-0.3,0.4-0.4,0.7c-0.1,0.3-0.1,0.6-0.1,1s0,0.7,0.1,1c0.1,0.3,0.2,0.5,0.4,0.7
	C271.7,54.6,271.9,54.7,272.2,54.7z"/>
<path class="st2" d="M277.4,47.7v8.2h-1.5v-8.2H277.4z"/>
<path class="st2" d="M281.1,56c-0.6,0-1.1-0.1-1.5-0.4c-0.4-0.3-0.7-0.6-0.9-1.1c-0.2-0.5-0.3-1-0.3-1.7c0-0.6,0.1-1.2,0.3-1.7
	c0.2-0.5,0.5-0.8,0.9-1.1c0.4-0.3,0.9-0.4,1.4-0.4c0.4,0,0.7,0.1,1,0.2c0.3,0.1,0.6,0.3,0.8,0.6c0.2,0.3,0.4,0.6,0.6,1
	c0.1,0.4,0.2,0.8,0.2,1.4v0.5H279v-1.1h3.2c0-0.2,0-0.5-0.1-0.7c-0.1-0.2-0.2-0.3-0.4-0.4c-0.2-0.1-0.4-0.2-0.6-0.2
	c-0.2,0-0.4,0.1-0.6,0.2c-0.2,0.1-0.3,0.3-0.4,0.5c-0.1,0.2-0.2,0.4-0.2,0.7v1c0,0.3,0.1,0.6,0.1,0.8c0.1,0.2,0.2,0.4,0.4,0.5
	c0.2,0.1,0.4,0.2,0.7,0.2c0.2,0,0.3,0,0.5-0.1c0.1-0.1,0.3-0.1,0.4-0.2c0.1-0.1,0.2-0.2,0.2-0.4l1.4,0.1c-0.1,0.4-0.2,0.7-0.4,1
	c-0.2,0.3-0.5,0.5-0.8,0.7C281.9,55.9,281.5,56,281.1,56z"/>
<path class="st2" d="M286.1,52.3v3.5h-1.5v-8.2h1.5v3.1h0.1c0.1-0.4,0.3-0.6,0.6-0.9c0.3-0.2,0.6-0.3,1-0.3c0.4,0,0.7,0.1,1,0.3
	c0.3,0.2,0.5,0.4,0.7,0.8c0.2,0.3,0.2,0.8,0.2,1.2v3.9h-1.5v-3.6c0-0.4-0.1-0.7-0.3-0.9c-0.2-0.2-0.4-0.3-0.7-0.3
	c-0.2,0-0.4,0-0.5,0.1c-0.2,0.1-0.3,0.2-0.4,0.4C286.2,51.8,286.1,52.1,286.1,52.3z"/>
<path class="st2" d="M293.2,55.9v-8.2h1.5v3.6h0.1l2.6-3.6h1.9l-2.7,3.7l2.7,4.5h-1.9l-2-3.4l-0.8,1v2.3H293.2z"/>
<path class="st2" d="M302.2,56c-0.6,0-1.1-0.1-1.5-0.4c-0.4-0.3-0.7-0.6-0.9-1.1c-0.2-0.5-0.3-1-0.3-1.7c0-0.6,0.1-1.2,0.3-1.7
	c0.2-0.5,0.5-0.8,0.9-1.1c0.4-0.3,0.9-0.4,1.4-0.4c0.4,0,0.7,0.1,1,0.2c0.3,0.1,0.6,0.3,0.8,0.6c0.2,0.3,0.4,0.6,0.5,1
	c0.1,0.4,0.2,0.8,0.2,1.4v0.5h-4.6v-1.1h3.2c0-0.2,0-0.5-0.1-0.7c-0.1-0.2-0.2-0.3-0.4-0.4c-0.2-0.1-0.4-0.2-0.6-0.2
	c-0.2,0-0.4,0.1-0.6,0.2c-0.2,0.1-0.3,0.3-0.4,0.5c-0.1,0.2-0.2,0.4-0.2,0.7v1c0,0.3,0.1,0.6,0.2,0.8c0.1,0.2,0.2,0.4,0.4,0.5
	c0.2,0.1,0.4,0.2,0.7,0.2c0.2,0,0.3,0,0.5-0.1c0.1-0.1,0.3-0.1,0.4-0.2c0.1-0.1,0.2-0.2,0.2-0.4l1.4,0.1c-0.1,0.4-0.2,0.7-0.4,1
	c-0.2,0.3-0.5,0.5-0.9,0.7C303.1,55.9,302.7,56,302.2,56z"/>
<path class="st2" d="M305.8,55.9v-6.1h1.5v1.1h0.1c0.1-0.4,0.3-0.6,0.6-0.9c0.3-0.2,0.6-0.3,1-0.3c0.4,0,0.7,0.1,1,0.3
	c0.3,0.2,0.4,0.5,0.5,0.8h0.1c0.1-0.4,0.3-0.6,0.6-0.8c0.3-0.2,0.6-0.3,1-0.3c0.5,0,0.9,0.2,1.2,0.5c0.3,0.4,0.5,0.9,0.5,1.5v4.1
	h-1.5v-3.8c0-0.3-0.1-0.6-0.2-0.8c-0.2-0.2-0.4-0.3-0.6-0.3c-0.3,0-0.5,0.1-0.6,0.3c-0.2,0.2-0.2,0.5-0.2,0.8v3.7H309v-3.8
	c0-0.3-0.1-0.5-0.2-0.7c-0.2-0.2-0.4-0.3-0.6-0.3c-0.2,0-0.3,0-0.5,0.1c-0.1,0.1-0.2,0.2-0.3,0.4c-0.1,0.2-0.1,0.4-0.1,0.6v3.7
	H305.8z"/>
<path class="st2" d="M316.5,52.3v3.5h-1.5v-6.1h1.4v1.1h0.1c0.1-0.4,0.3-0.6,0.6-0.8c0.3-0.2,0.6-0.3,1-0.3c0.4,0,0.7,0.1,1,0.3
	c0.3,0.2,0.5,0.5,0.7,0.8c0.2,0.3,0.2,0.8,0.2,1.2v3.9h-1.5v-3.6c0-0.4-0.1-0.7-0.3-0.9c-0.2-0.2-0.4-0.3-0.7-0.3
	c-0.2,0-0.4,0-0.5,0.1c-0.2,0.1-0.3,0.2-0.4,0.4C316.5,51.8,316.5,52.1,316.5,52.3z"/>
<path class="st2" d="M322.8,56c-0.4,0-0.7-0.1-0.9-0.2c-0.3-0.1-0.5-0.3-0.6-0.6c-0.2-0.3-0.2-0.6-0.2-1c0-0.3,0.1-0.6,0.2-0.9
	c0.1-0.2,0.3-0.4,0.5-0.6c0.2-0.1,0.4-0.2,0.7-0.3c0.2-0.1,0.5-0.1,0.8-0.2c0.3,0,0.6-0.1,0.8-0.1c0.2,0,0.3-0.1,0.4-0.2
	c0.1-0.1,0.1-0.2,0.1-0.3v0c0-0.3-0.1-0.4-0.2-0.6c-0.1-0.1-0.3-0.2-0.6-0.2c-0.3,0-0.5,0.1-0.7,0.2c-0.2,0.1-0.3,0.3-0.3,0.5
	l-1.4-0.1c0.1-0.4,0.2-0.7,0.4-1c0.2-0.3,0.5-0.5,0.8-0.6c0.3-0.1,0.7-0.2,1.2-0.2c0.3,0,0.6,0,0.9,0.1c0.3,0.1,0.5,0.2,0.7,0.4
	c0.2,0.2,0.4,0.4,0.5,0.6c0.1,0.3,0.2,0.6,0.2,0.9v4.1h-1.4V55h0c-0.1,0.2-0.2,0.4-0.4,0.5c-0.1,0.1-0.3,0.3-0.5,0.3
	C323.3,56,323,56,322.8,56z M323.2,54.8c0.2,0,0.4,0,0.6-0.1c0.2-0.1,0.3-0.2,0.4-0.4c0.1-0.2,0.1-0.4,0.1-0.6V53
	c0,0-0.1,0.1-0.2,0.1c-0.1,0-0.2,0.1-0.3,0.1c-0.1,0-0.2,0-0.3,0.1c-0.1,0-0.2,0-0.3,0c-0.2,0-0.3,0.1-0.5,0.1
	c-0.1,0.1-0.2,0.2-0.3,0.3c-0.1,0.1-0.1,0.2-0.1,0.4c0,0.2,0.1,0.4,0.2,0.5C322.8,54.8,323,54.8,323.2,54.8z"/>
<path class="st2" d="M328.4,54.1l0-2h0.2l1.8-2.3h1.7l-2.4,3.1h-0.4L328.4,54.1z M327,55.9v-8.2h1.5v8.2H327z M330.5,55.9l-1.6-2.7
	l1-1.2l2.4,3.9H330.5z"/>
<path class="st2" d="M335.2,56c-0.6,0-1-0.1-1.5-0.4c-0.4-0.3-0.7-0.6-0.9-1.1c-0.2-0.5-0.3-1-0.3-1.7c0-0.6,0.1-1.2,0.3-1.7
	c0.2-0.5,0.5-0.8,0.9-1.1c0.4-0.3,0.9-0.4,1.4-0.4c0.4,0,0.7,0.1,1,0.2c0.3,0.1,0.6,0.3,0.8,0.6c0.2,0.3,0.4,0.6,0.6,1
	c0.1,0.4,0.2,0.8,0.2,1.4v0.5H333v-1.1h3.2c0-0.2,0-0.5-0.1-0.7c-0.1-0.2-0.2-0.3-0.4-0.4c-0.2-0.1-0.4-0.2-0.6-0.2
	c-0.2,0-0.4,0.1-0.6,0.2c-0.2,0.1-0.3,0.3-0.4,0.5c-0.1,0.2-0.2,0.4-0.2,0.7v1c0,0.3,0,0.6,0.1,0.8c0.1,0.2,0.2,0.4,0.4,0.5
	c0.2,0.1,0.4,0.2,0.7,0.2c0.2,0,0.3,0,0.5-0.1c0.1-0.1,0.3-0.1,0.4-0.2c0.1-0.1,0.2-0.2,0.2-0.4l1.4,0.1c-0.1,0.4-0.2,0.7-0.4,1
	c-0.2,0.3-0.5,0.5-0.8,0.7C336,55.9,335.6,56,335.2,56z"/>
<path class="st2" d="M338.7,55.9v-6.1h1.5v1.1h0.1c0.1-0.4,0.3-0.7,0.5-0.9c0.2-0.2,0.5-0.3,0.8-0.3c0.1,0,0.2,0,0.2,0
	c0.1,0,0.2,0,0.2,0v1.5c-0.1,0-0.2,0-0.3-0.1c-0.1,0-0.2,0-0.3,0c-0.2,0-0.4,0.1-0.6,0.2c-0.2,0.1-0.3,0.3-0.4,0.4
	c-0.1,0.2-0.2,0.4-0.2,0.7v3.5H338.7z"/>
<path class="st1" d="M60.1,43.1V10.8h14.1c3.4,0,6,0.7,7.8,2.2c1.8,1.5,2.7,3.5,2.7,6.2c0,1.9-0.6,3.6-1.7,4.9
	c-1.1,1.3-2.5,2.2-4.4,2.7v-0.7c2.2,0.4,3.9,1.3,5.1,2.7c1.2,1.3,1.8,3.1,1.8,5.3c0,2.9-1,5.1-2.9,6.7c-1.9,1.6-4.6,2.4-8,2.4H60.1z
	 M66.6,37.8h7.3c1.7,0,3-0.3,3.9-1c0.9-0.7,1.3-1.7,1.3-3.2c0-1.5-0.4-2.6-1.3-3.2c-0.9-0.7-2.2-1-3.9-1h-7.3V37.8z M66.6,24.1H73
	c1.8,0,3.1-0.3,3.9-1c0.8-0.7,1.3-1.7,1.3-3c0-1.3-0.4-2.3-1.3-3c-0.8-0.7-2.1-1-3.9-1h-6.4V24.1z"/>
<path class="st1" d="M90.4,43.1V10.8h6.8v26.3H111v6H90.4z"/>
<path class="st1" d="M115.1,43.1V10.8h6.8v14.1h0.1l12.6-14.1h8l-15.4,16.9l0-2.9l16.3,18.4h-8.3L122,28.4h-0.1v14.8H115.1z"/>
<path class="st1" d="M144.9,43.1V10.8h6.8v14.1h0.1l12.6-14.1h8l-15.4,16.9l0-2.9l16.3,18.4H165l-13.3-14.8h-0.1v14.8H144.9z"/>
<path class="st1" d="M193.7,43.6c-3.1,0-5.7-0.7-7.8-2c-2.1-1.3-3.8-3.3-5-5.7c-1.1-2.5-1.7-5.4-1.7-8.9c0-3.4,0.6-6.4,1.7-8.8
	c1.2-2.5,2.8-4.4,5-5.7c2.1-1.3,4.8-2,7.8-2c2.2,0,4.1,0.4,5.8,1.1c1.7,0.7,3.2,1.7,4.5,3.1l-1.3,3c-1.4-1.3-2.8-2.2-4.1-2.8
	c-1.4-0.6-3-0.9-4.8-0.9c-3.5,0-6.2,1.1-8,3.4c-1.8,2.3-2.7,5.5-2.7,9.7s0.9,7.4,2.7,9.7c1.8,2.3,4.5,3.4,8,3.4
	c1.8,0,3.4-0.3,4.8-0.9c1.4-0.6,2.7-1.6,4.1-2.9l1.3,3.1c-1.3,1.3-2.8,2.3-4.5,3.1C197.8,43.2,195.8,43.6,193.7,43.6z"/>
<path class="st1" d="M217.1,43.6c-2.1,0-3.9-0.5-5.5-1.4c-1.5-1-2.7-2.4-3.6-4.1c-0.8-1.8-1.3-3.9-1.3-6.4c0-2.5,0.4-4.6,1.3-6.4
	c0.8-1.8,2-3.1,3.6-4.1c1.6-1,3.4-1.5,5.5-1.5c2.1,0,3.9,0.5,5.5,1.5c1.6,0.9,2.8,2.3,3.6,4.1c0.9,1.8,1.3,3.9,1.3,6.4
	c0,2.4-0.4,4.6-1.3,6.4c-0.8,1.8-2,3.2-3.6,4.1C221,43.1,219.2,43.6,217.1,43.6z M217.1,40.5c2.1,0,3.7-0.7,5-2.2
	c1.2-1.5,1.8-3.7,1.8-6.7c0-2.9-0.6-5.2-1.9-6.7c-1.2-1.5-2.9-2.3-4.9-2.3c-2.1,0-3.7,0.8-4.9,2.3c-1.2,1.5-1.8,3.7-1.8,6.7
	c0,2.9,0.6,5.1,1.8,6.7C213.4,39.8,215,40.5,217.1,40.5z"/>
<path class="st1" d="M232.9,43.1V25.4c0-0.9,0-1.7-0.1-2.6c-0.1-0.9-0.1-1.8-0.2-2.7h3.4l0.4,5h-0.5c0.6-1.8,1.7-3.1,3-4
	c1.4-0.9,3.1-1.4,4.9-1.4c2.6,0,4.5,0.7,5.8,2.2c1.3,1.4,2,3.7,2,6.8v14.4h-3.5V29c0-2.2-0.4-3.7-1.3-4.7c-0.8-1-2.1-1.5-3.8-1.5
	c-2,0-3.6,0.7-4.8,2c-1.2,1.3-1.8,3.1-1.8,5.3v13.2H232.9z"/>
<path class="st1" d="M258.4,43.1V25.4c0-0.9,0-1.7-0.1-2.6c-0.1-0.9-0.1-1.8-0.2-2.7h3.4l0.4,5h-0.5c0.6-1.8,1.7-3.1,3-4
	c1.4-0.9,3.1-1.4,4.9-1.4c2.6,0,4.5,0.7,5.8,2.2c1.3,1.4,2,3.7,2,6.8v14.4h-3.5V29c0-2.2-0.4-3.7-1.3-4.7c-0.8-1-2.1-1.5-3.8-1.5
	c-2,0-3.6,0.7-4.8,2c-1.2,1.3-1.8,3.1-1.8,5.3v13.2H258.4z"/>
<path class="st1" d="M293.6,43.6c-3.4,0-6.1-1-8.1-3.1c-2-2.1-3-5-3-8.8c0-2.4,0.4-4.5,1.3-6.3c0.9-1.8,2.1-3.2,3.6-4.2
	c1.6-1,3.4-1.5,5.4-1.5c2,0,3.7,0.4,5,1.3c1.4,0.9,2.4,2.2,3.1,3.8c0.7,1.6,1.1,3.5,1.1,5.8V32h-16.9v-2.3h14.6l-0.7,0.6
	c0-2.4-0.5-4.4-1.6-5.7c-1-1.4-2.6-2.1-4.7-2.1c-2.2,0-3.9,0.8-5.1,2.4c-1.2,1.6-1.8,3.7-1.8,6.5v0.4c0,2.9,0.7,5.1,2,6.6
	c1.4,1.5,3.3,2.2,5.7,2.2c1.3,0,2.5-0.2,3.6-0.6c1.2-0.4,2.3-1.1,3.3-2.1l1.2,2.6c-1,1-2.2,1.7-3.7,2.3
	C296.7,43.3,295.2,43.6,293.6,43.6z"/>
<path class="st1" d="M316.7,43.6c-2.1,0-4-0.5-5.6-1.5c-1.6-1-2.8-2.4-3.6-4.2c-0.8-1.8-1.3-3.9-1.3-6.4c0-2.5,0.4-4.6,1.3-6.4
	c0.9-1.8,2.1-3.1,3.7-4c1.6-0.9,3.4-1.4,5.6-1.4c1.4,0,2.7,0.3,4,0.8c1.3,0.5,2.4,1.3,3.3,2.2l-1.3,2.7c-0.9-0.9-1.8-1.5-2.9-2
	c-1-0.4-2-0.6-3-0.6c-2.3,0-4,0.7-5.3,2.2c-1.2,1.5-1.9,3.7-1.9,6.6c0,2.8,0.6,5,1.9,6.6c1.2,1.6,3,2.3,5.3,2.3c1,0,1.9-0.2,3-0.6
	c1-0.4,2-1.1,2.9-2l1.3,2.6c-0.9,1-2,1.7-3.3,2.2C319.3,43.3,318,43.6,316.7,43.6z"/>
<path class="st1" d="M336.8,43.6c-2.1,0-3.8-0.6-4.9-1.9c-1.1-1.3-1.7-3.3-1.7-5.9V23h-4.3v-2.9h4.3v-6.3l3.5-1.1v7.3h6.3V23h-6.3
	v12.3c0,1.8,0.3,3.2,0.9,3.9c0.6,0.8,1.5,1.1,2.7,1.1c0.5,0,1,0,1.5-0.1c0.4-0.1,0.8-0.3,1.2-0.4V43c-0.4,0.2-0.9,0.3-1.5,0.4
	C337.9,43.5,337.3,43.6,336.8,43.6z"/>
</svg>
